<svg width="1200" height="1800" viewBox="0 0 1200 1800" xmlns="http://www.w3.org/2000/svg">
  <defs>
    <mask id="mask-cute-lemon-6">
      <rect width="100%" height="100%" fill="white"/>
      <rect x="65" y="65" width="510" height="400" fill="black" rx="18"/>
<rect x="625" y="65" width="510" height="400" fill="black" rx="18"/>
<rect x="65" y="515" width="510" height="400" fill="black" rx="18"/>
<rect x="625" y="515" width="510" height="400" fill="black" rx="18"/>
<rect x="65" y="965" width="510" height="400" fill="black" rx="18"/>
<rect x="625" y="965" width="510" height="400" fill="black" rx="18"/>
    </mask>
  </defs>
  <g mask="url(#mask-cute-lemon-6)">
    
      <rect width="100%" height="100%" fill="#FFFDE7"/>
      <!-- Thick colored border -->
      <rect x="0" y="0" width="1200" height="1800" fill="none" stroke="#FFD54F" stroke-width="24" rx="30"/>
      <!-- Scattered pattern -->
      <polygon points="30.47588135160122,1500.706379917177 33.930130606452124,1508.7662948451623 41.99004553443756,1509.917711263446 35.081547024735755,1514.5233769365805 37.384379861303024,1523.7347082828496 30.47588135160122,1517.9776261914315 23.567382841899416,1523.7347082828496 25.870215678466682,1514.5233769365805 18.961717168764878,1509.917711263446 27.021632096750317,1508.7662948451623" fill="#FFA726" opacity="0.1"/><polygon points="383.6137095313647,1485.2532472622147 386.0678526539987,1490.9795812150273 391.79418660681154,1491.7976289225721 386.8859003615434,1495.0698197527508 388.5219957766328,1501.6142014131083 383.6137095313647,1497.523962875385 378.70542328609656,1501.6142014131083 380.341518701186,1495.0698197527508 375.43323245591785,1491.7976289225721 381.15956640873065,1490.9795812150273" fill="#FFA726" opacity="0.1"/><polygon points="791.7355390188616,1642.276532264684 793.6959476736337,1646.8508191258188 798.2702345347686,1647.5042886774097 794.3494172252244,1650.1181668837723 795.6563563284059,1655.345923296498 791.7355390188616,1652.0785755385446 787.8147217093173,1655.345923296498 789.1216608124987,1650.1181668837723 785.2008435029545,1647.5042886774097 789.7751303640895,1646.8508191258188" fill="#FFA726" opacity="0.1"/><polygon points="94.13679306780621,827.5855989377811 96.55149873248442,833.2199121553637 102.18581195006689,834.0248140435897 97.35640062071047,837.244421596494 98.96620439716261,843.6836367023026 94.13679306780621,839.6591272611722 89.3073817384498,843.6836367023026 90.91718551490194,837.244421596494 86.08777418554553,834.0248140435897 91.722087403128,833.2199121553637" fill="#FFA726" opacity="0.1"/><polygon points="579.0577612622247,327.8335444664895 581.4169749884093,333.33837649425345 586.9218070161731,334.1247810696483 582.2033795638041,337.27039937122765 583.7761887145938,343.56163597438643 579.0577612622247,339.6296130974122 574.3393338098557,343.56163597438643 575.9121429606454,337.27039937122765 571.1937155082763,334.1247810696483 576.6985475360402,333.33837649425345" fill="#FFA726" opacity="0.1"/><polygon points="1052.5528470543707,1571.7074810301024 1056.1063212667652,1579.998920859023 1064.3977610956858,1581.1834122631544 1057.2908126708967,1585.9213778796807 1059.6597954791598,1595.3973091127327 1052.5528470543707,1589.474852092075 1045.4458986295815,1595.3973091127327 1047.8148814378446,1585.9213778796807 1040.7079330130555,1581.1834122631544 1048.999372841976,1579.998920859023" fill="#FFA726" opacity="0.1"/><polygon points="220.54403910464052,1615.5734489109122 223.52480818175226,1622.5285767575062 230.47993602834634,1623.5221664498767 224.51839787412285,1627.4965252193592 226.50557725886404,1635.4452427583237 220.54403910464052,1630.477294296471 214.582500950417,1635.4452427583237 216.56968033515818,1627.4965252193592 210.6081421809347,1623.5221664498767 217.56327002752877,1622.5285767575062" fill="#FFA726" opacity="0.1"/><polygon points="692.9419315354357,406.4395229615639 694.7813524748956,410.73150515363693 699.0733346669685,411.3446454667902 695.3944927880489,413.79720671940333 696.6207734143554,418.70232922462964 692.9419315354357,415.6366276588632 689.2630896565161,418.70232922462964 690.4893702828226,413.79720671940333 686.8105284039029,411.3446454667902 691.1025105959759,410.73150515363693" fill="#FFA726" opacity="0.1"/><polygon points="973.8716402779069,1583.5813166569744 976.0942094971372,1588.767311501845 981.2802043420078,1589.508167908255 976.8350659035473,1592.4715935338954 978.3167787163674,1598.398444785176 973.8716402779069,1594.6941627531257 969.4265018394464,1598.398444785176 970.9082146522665,1592.4715935338954 966.463076213806,1589.508167908255 971.6490710586766,1588.767311501845" fill="#FFA726" opacity="0.1"/><polygon points="1160.4391917217888,1645.3355347340328 1162.5115412556675,1650.1710169797493 1167.347023501384,1650.861800157709 1163.202324433627,1653.624932869547 1164.5838907895459,1659.1511982932232 1160.4391917217888,1655.6972824034256 1156.2944926540317,1659.1511982932232 1157.6760590099507,1653.624932869547 1153.5313599421936,1650.861800157709 1158.3668421879102,1650.1710169797493" fill="#FFA726" opacity="0.1"/><polygon points="1189.313926724078,589.4700867398365 1192.0978413802552,595.9658876042496 1198.5936422446684,596.8938591563086 1193.0258129323142,600.6057453645448 1194.8817560364323,608.0295177810169 1189.313926724078,603.3896600207219 1183.746097411724,608.0295177810169 1185.602040515842,600.6057453645448 1180.0342112034878,596.8938591563086 1186.530012067901,595.9658876042496" fill="#FFA726" opacity="0.1"/><polygon points="26.816377068698756,1049.3273524021054 28.304530168608323,1052.7997096352276 31.776887401730647,1053.2957606685309 28.800581201911513,1055.2799648017435 29.79268326851789,1059.248373068169 26.816377068698756,1056.768117901653 23.84007086887962,1059.248373068169 24.832172935486,1055.2799648017435 21.855866735666865,1053.2957606685309 25.32822396878919,1052.7997096352276" fill="#FFA726" opacity="0.1"/><polygon points="1094.5833540471115,982.3179134114811 1097.9825125861748,990.2492833359624 1105.9138825106563,991.382336182317 1099.1155654325294,995.9145475677349 1101.3816711252384,1004.9789703385708 1094.5833540471115,999.3137061067983 1087.7850369689845,1004.9789703385708 1090.0511426616936,995.9145475677349 1083.2528255835666,991.382336182317 1091.184195508048,990.2492833359624" fill="#FFA726" opacity="0.1"/><polygon points="628.7838053226319,1147.1253616205652 630.8854343575289,1152.0291627019915 635.7892354389551,1152.7297057136236 631.5859773691612,1155.531877760153 632.9870633924259,1161.1362218532115 628.7838053226319,1157.63350679505 624.580547252838,1161.1362218532115 625.9816332761026,1155.531877760153 621.7783752063087,1152.7297057136236 626.6821762877349,1152.0291627019915" fill="#FFA726" opacity="0.1"/><polygon points="39.600619524345376,1146.0099401790742 41.22727970408953,1149.805480598477 45.02282012349257,1150.347700658392 41.76949976400425,1152.5165808980507 42.85393988383369,1156.8543413773684 39.600619524345376,1154.143241077795 36.34729916485706,1156.8543413773684 37.4317392846865,1152.5165808980507 34.17841892519818,1150.347700658392 37.97395934460122,1149.805480598477" fill="#FFA726" opacity="0.1"/><polygon points="1038.828202000659,1167.3913715960377 1042.1273193457419,1175.0893120678973 1049.8252598176014,1176.1890178495917 1043.227025127436,1180.5878409763684 1045.4264366908244,1189.3854872299223 1038.828202000659,1183.8869583214512 1032.2299673104937,1189.3854872299223 1034.4293788738821,1180.5878409763684 1027.8311441837168,1176.1890178495917 1035.5290846555763,1175.0893120678973" fill="#FFA726" opacity="0.1"/><polygon points="1132.6105797035718,272.81597364769874 1134.471909802474,277.15907721180383 1138.815013366579,277.77952057810455 1135.0923531687747,280.26129404330743 1136.3332399013761,285.22484097371324 1132.6105797035718,282.12262414220965 1128.8879195057675,285.22484097371324 1130.128806238369,280.26129404330743 1126.4061460405646,277.77952057810455 1130.7492496046696,277.15907721180383" fill="#FFA726" opacity="0.1"/><polygon points="287.492927804117,1035.8855434915847 288.86740008598883,1039.092645482619 292.07450207702306,1039.5508029099094 289.3255575132794,1041.383432619072 290.24187236786065,1045.0486920373967 287.492927804117,1042.7579049009437 284.7439832403734,1045.0486920373967 285.6602980949546,1041.383432619072 282.911353531211,1039.5508029099094 286.1184555222452,1039.092645482619" fill="#FFA726" opacity="0.1"/><polygon points="977.8294184970013,558.5663632625401 980.8267973959696,565.5602473601328 987.8206814935623,566.559373659789 981.8259236956258,570.5558788584134 983.824176294938,578.5488892556623 977.8294184970013,573.5532577573817 971.8346606990646,578.5488892556623 973.8329132983768,570.5558788584134 967.8381555004402,566.559373659789 974.8320395980329,565.5602473601328" fill="#FFA726" opacity="0.1"/><polygon points="1073.5798385679534,676.2717578525392 1076.0548215080564,682.0467180461127 1081.8297817016298,682.8717123594803 1076.879815821424,686.1716896129509 1078.5298044481592,692.771644119892 1073.5798385679534,688.6466725530538 1068.6298726877476,692.771644119892 1070.2798613144828,686.1716896129509 1065.329895434277,682.8717123594803 1071.1048556278504,682.0467180461127" fill="#FFA726" opacity="0.1"/><polygon points="719.1415569923274,311.28882328354644 721.2233698401818,316.1463865952067 726.080933151842,316.8403242111582 721.9173074561332,319.616074674964 723.3051826880362,325.16757560257577 719.1415569923274,321.6978875228184 714.9779312966186,325.16757560257577 716.3658065285216,319.616074674964 712.2021808328128,316.8403242111582 717.059744144473,316.1463865952067" fill="#FFA726" opacity="0.1"/><polygon points="314.2728849447079,1164.9415541560777 317.7633075913072,1173.0858736648095 325.9076271000389,1174.2493478803424 318.9267818068403,1178.903244742475 321.2537302379065,1188.2110384667396 314.2728849447079,1182.3936673890742 307.29203965150936,1188.2110384667396 309.6189880825755,1178.903244742475 302.63814278937696,1174.2493478803424 310.78246229810867,1173.0858736648095" fill="#FFA726" opacity="0.1"/><polygon points="766.7111256781137,762.879065270423 769.0991043648673,768.4510155395149 774.6710546339592,769.2470084350994 769.8950972604518,772.4309800174376 771.487083051621,778.798923182114 766.7111256781137,774.8189587041912 761.9351683046065,778.798923182114 763.5271540957756,772.4309800174376 758.7511967222682,769.2470084350994 764.3231469913601,768.4510155395149" fill="#FFA726" opacity="0.1"/><polygon points="378.8988766995248,1421.8105099180814 381.39792549181533,1427.6416237667593 387.2290393404933,1428.474640030856 382.2309417559122,1431.8067050872435 383.8969742841059,1438.4708352000182 378.8988766995248,1434.305753879534 373.9007791149437,1438.4708352000182 375.5668116431374,1431.8067050872435 370.56871405855634,1428.474640030856 376.3998279072343,1427.6416237667593" fill="#FFA726" opacity="0.1"/><polygon points="156.53032134895244,603.4362767706032 157.80302344132497,606.405914986139 160.7726616568609,606.8301490169299 158.2272574721158,608.5270851400933 159.07572553369752,611.92095738642 156.53032134895244,609.7997872324659 153.98491716420736,611.92095738642 154.83338522578907,608.5270851400933 152.287981041044,606.8301490169299 155.25761925657991,606.405914986139" fill="#FFA726" opacity="0.1"/><polygon points="152.04235925529375,855.7300905172995 154.49642441058202,861.4562425463054 160.22257643958795,862.2742642647348 155.31444612901143,865.5463511384525 156.95048956587027,872.0905248858878 152.04235925529375,868.0004162937407 147.13422894471722,872.0905248858878 148.77027238157606,865.5463511384525 143.86214207099954,862.2742642647348 149.58829410000547,861.4562425463054" fill="#FFA726" opacity="0.1"/><polygon points="136.53694869627893,558.6204769449499 138.37808307668016,562.9164571658861 142.67406329761639,563.5301686260199 138.9917945368139,565.9850144665548 140.2192174570814,570.8947061476248 136.53694869627893,567.8261488469561 132.85467993547644,570.8947061476248 134.08210285574395,565.9850144665548 130.39983409494147,563.5301686260199 134.6958143158777,562.9164571658861" fill="#FFA726" opacity="0.1"/><polygon points="972.77258445767,878.9435182725485 974.0624701388762,881.9532515286965 977.0722033950241,882.3832134224318 974.4924320326116,884.1030609973735 975.3523558200825,887.5427561472568 972.77258445767,885.3929466785797 970.1928130952574,887.5427561472568 971.0527368827283,884.1030609973735 968.4729655203158,882.3832134224318 971.4826987764637,881.9532515286965" fill="#FFA726" opacity="0.1"/><polygon points="554.331056358601,1558.7155167970018 555.6475737993118,1561.7873908253268 558.7194478276367,1562.2262299722304 556.0864129462153,1563.9815865598446 556.9640912400224,1567.4922997350732 554.331056358601,1565.2981040005552 551.6980214771796,1567.4922997350732 552.5756997709867,1563.9815865598446 549.9426648895653,1562.2262299722304 553.0145389178903,1561.7873908253268" fill="#FFA726" opacity="0.1"/><polygon points="1154.3219480238129,426.1365234871735 1156.5223479585,431.2707900014434 1161.65661447277,432.0042566463391 1157.2558146033957,434.93812322592186 1158.722747893187,440.80585638508745 1154.3219480238129,437.138523160609 1149.9211481544387,440.80585638508745 1151.38808144423,434.93812322592186 1146.9872815748558,432.0042566463391 1152.1215480891258,431.2707900014434" fill="#FFA726" opacity="0.1"/><polygon points="860.8566197202138,21.459598062056674 862.1633714055303,24.508685327795042 865.2124586712686,24.944269222900523 862.5989553006357,26.686604803322446 863.4701230908466,30.171275964166295 860.8566197202138,27.993356488638888 858.2431163495809,30.171275964166295 859.1142841397918,26.686604803322446 856.500780769159,24.944269222900523 859.5498680348973,24.508685327795042" fill="#FFA726" opacity="0.1"/><polygon points="687.7965303955567,288.7542490668169 689.500920532179,292.73115938560215 693.4778308509642,293.2992894311429 690.0690505777197,295.5718096133059 691.2053106688012,300.1168499776319 687.7965303955567,297.27619974992814 684.3877501223122,300.1168499776319 685.5240102133937,295.5718096133059 682.1152299401492,293.2992894311429 686.0921402589345,292.73115938560215" fill="#FFA726" opacity="0.1"/><polygon points="242.52052255209583,1252.1686522738717 245.9634387932377,1260.2021235032028 253.99691002256878,1261.34976225025 247.111077540285,1265.940317238439 249.4063550343796,1275.1214272148175 242.52052255209583,1269.3832334795811 235.63469006981205,1275.1214272148175 237.92996756390664,1265.940317238439 231.04413508162287,1261.34976225025 239.07760631095394,1260.2021235032028" fill="#FFA726" opacity="0.1"/><polygon points="1146.6330505410517,985.3864050669468 1148.7735164146625,990.3808254387051 1153.7679367864205,991.094314063242 1149.4870050391992,993.9482685613895 1150.913982288273,999.6561775576846 1146.6330505410517,996.0887344350001 1142.3521187938304,999.6561775576846 1143.7790960429043,993.9482685613895 1139.498164295683,991.094314063242 1144.492584667441,990.3808254387051" fill="#FFA726" opacity="0.1"/><polygon points="4.974598069651609,1201.5480587049835 8.145779581131208,1208.9474822317693 15.54520310791694,1210.0045427355958 9.202840084957742,1214.2327847509018 11.316961092610807,1222.689268781514 4.974598069651609,1217.4039662623816 -1.3677649533075895,1222.689268781514 0.746356054345477,1214.2327847509018 -5.596006968613722,1210.0045427355958 1.8034165581720099,1208.9474822317693" fill="#FFA726" opacity="0.1"/>
    
  </g>
  
    <g transform="translate(600,35)">
      <ellipse cx="-14" cy="0" rx="14" ry="8.4" fill="#FFA726" transform="rotate(-20)"/>
      <ellipse cx="14" cy="0" rx="14" ry="8.4" fill="#FFA726" transform="rotate(20)"/>
      <circle cx="0" cy="0" r="4.2" fill="#FFA726"/>
      <path d="M-2.8000000000000003,2.8000000000000003 L-5.6000000000000005,16.8" stroke="#FFA726" stroke-width="3" fill="none"/>
      <path d="M2.8000000000000003,2.8000000000000003 L5.6000000000000005,16.8" stroke="#FFA726" stroke-width="3" fill="none"/>
    </g>
  <rect x="65" y="65" width="510" height="400" fill="none" stroke="#FFD54F" stroke-width="5" rx="18"/>
       <rect x="70" y="70" width="500" height="390" fill="none" stroke="white" stroke-width="2" rx="18" opacity="0.6"/>
<rect x="625" y="65" width="510" height="400" fill="none" stroke="#FFD54F" stroke-width="5" rx="18"/>
       <rect x="630" y="70" width="500" height="390" fill="none" stroke="white" stroke-width="2" rx="18" opacity="0.6"/>
<rect x="65" y="515" width="510" height="400" fill="none" stroke="#FFD54F" stroke-width="5" rx="18"/>
       <rect x="70" y="520" width="500" height="390" fill="none" stroke="white" stroke-width="2" rx="18" opacity="0.6"/>
<rect x="625" y="515" width="510" height="400" fill="none" stroke="#FFD54F" stroke-width="5" rx="18"/>
       <rect x="630" y="520" width="500" height="390" fill="none" stroke="white" stroke-width="2" rx="18" opacity="0.6"/>
<rect x="65" y="965" width="510" height="400" fill="none" stroke="#FFD54F" stroke-width="5" rx="18"/>
       <rect x="70" y="970" width="500" height="390" fill="none" stroke="white" stroke-width="2" rx="18" opacity="0.6"/>
<rect x="625" y="965" width="510" height="400" fill="none" stroke="#FFD54F" stroke-width="5" rx="18"/>
       <rect x="630" y="970" width="500" height="390" fill="none" stroke="white" stroke-width="2" rx="18" opacity="0.6"/><polygon points="57,51 59,55 63,57 59,59 57,63 55,59 51,57 55,55" fill="#FFA726" opacity="0.5"/>
<polygon points="1131,51 1133,55 1137,57 1133,59 1131,63 1129,59 1125,57 1129,55" fill="#FFA726" opacity="0.5"/>
<polygon points="57,501 59,505 63,507 59,509 57,513 55,509 51,507 55,505" fill="#FFA726" opacity="0.5"/>
<polygon points="1131,501 1133,505 1137,507 1133,509 1131,513 1129,509 1125,507 1129,505" fill="#FFA726" opacity="0.5"/>
<polygon points="57,951 59,955 63,957 59,959 57,963 55,959 51,957 55,955" fill="#FFA726" opacity="0.5"/>
<polygon points="1131,951 1133,955 1137,957 1133,959 1131,963 1129,959 1125,957 1129,955" fill="#FFA726" opacity="0.5"/>
  
      <text x="600" y="1725" text-anchor="middle" font-family="'Caveat', cursive, sans-serif" font-size="36" font-weight="bold" fill="#FFA726" letter-spacing="1">BaliSnap Studio</text>
      <g transform="translate(1158.9989052703595,1267.3516995435132) rotate(202.45481854533293) scale(0.6176522392943988)">
      <path d="M0,-4 C-2,-8 -8,-8 -8,-4 C-8,0 -2,4 0,8 C2,4 8,0 8,-4 C8,-8 2,-8 0,-4Z" fill="#FFA726" opacity="0.3"/>
    </g><g transform="translate(993.7884146289792,1419.3389009864432) rotate(150.02458370292985) scale(0.4261503162106036)">
      <path d="M0,-4 C-2,-8 -8,-8 -8,-4 C-8,0 -2,4 0,8 C2,4 8,0 8,-4 C8,-8 2,-8 0,-4Z" fill="#FFA726" opacity="0.3"/>
    </g><g transform="translate(77.26646110160878,308.01240504534206) rotate(358.5961755538324) scale(0.37779485017787184)">
      <path d="M0,-4 C-2,-8 -8,-8 -8,-4 C-8,0 -2,4 0,8 C2,4 8,0 8,-4 C8,-8 2,-8 0,-4Z" fill="#FFA726" opacity="0.3"/>
    </g><g transform="translate(553.0751471902013,473.17217520733567) rotate(15.445691231121952) scale(0.30139950309079094)">
      <path d="M0,-4 C-2,-8 -8,-8 -8,-4 C-8,0 -2,4 0,8 C2,4 8,0 8,-4 C8,-8 2,-8 0,-4Z" fill="#FFA726" opacity="0.3"/>
    </g><g transform="translate(119.11739308304841,575.2148415662487) rotate(179.54965878236078) scale(0.7223091196476567)">
      <path d="M0,-4 C-2,-8 -8,-8 -8,-4 C-8,0 -2,4 0,8 C2,4 8,0 8,-4 C8,-8 2,-8 0,-4Z" fill="#FFA726" opacity="0.3"/>
    </g>
    
</svg>