<svg width="800" height="2400" viewBox="0 0 800 2400" xmlns="http://www.w3.org/2000/svg">
  <defs>
    <mask id="mask-cute-peach-3">
      <rect width="100%" height="100%" fill="white"/>
      <rect x="80" y="440" width="640" height="480" fill="black" rx="15"/>
<rect x="80" y="980" width="640" height="480" fill="black" rx="15"/>
<rect x="80" y="1520" width="640" height="480" fill="black" rx="15"/>
    </mask>
  </defs>
  <g mask="url(#mask-cute-peach-3)">
    
      <rect width="100%" height="100%" fill="#FFEBF0"/>
      <g transform="translate(21.397098546286205,1263.1240826688002) rotate(47.89620038857329) scale(0.5763471482566997)">
      <path d="M0,-4 C-2,-8 -8,-8 -8,-4 C-8,0 -2,4 0,8 C2,4 8,0 8,-4 C8,-8 2,-8 0,-4Z" fill="#FF8DA1" opacity="0.25"/>
    </g><g transform="translate(69.87194052885467,2213.130548049817) rotate(158.16885305398037) scale(0.48440052814260176)">
      <path d="M0,-4 C-2,-8 -8,-8 -8,-4 C-8,0 -2,4 0,8 C2,4 8,0 8,-4 C8,-8 2,-8 0,-4Z" fill="#FF8DA1" opacity="0.25"/>
    </g><g transform="translate(230.9219060753676,913.4395868642625) rotate(81.22177923211994) scale(0.6706558461959062)">
      <path d="M0,-4 C-2,-8 -8,-8 -8,-4 C-8,0 -2,4 0,8 C2,4 8,0 8,-4 C8,-8 2,-8 0,-4Z" fill="#FF8DA1" opacity="0.25"/>
    </g><g transform="translate(743.2127467759071,2329.906521299767) rotate(114.01430826076708) scale(0.37060500683319286)">
      <path d="M0,-4 C-2,-8 -8,-8 -8,-4 C-8,0 -2,4 0,8 C2,4 8,0 8,-4 C8,-8 2,-8 0,-4Z" fill="#FF8DA1" opacity="0.25"/>
    </g><g transform="translate(707.7352530395009,1519.1956705592534) rotate(35.52091193899597) scale(0.7003420797179845)">
      <path d="M0,-4 C-2,-8 -8,-8 -8,-4 C-8,0 -2,4 0,8 C2,4 8,0 8,-4 C8,-8 2,-8 0,-4Z" fill="#FF8DA1" opacity="0.25"/>
    </g><g transform="translate(266.598884637094,2182.3748105972772) rotate(9.51294210694073) scale(0.7944673774246753)">
      <path d="M0,-4 C-2,-8 -8,-8 -8,-4 C-8,0 -2,4 0,8 C2,4 8,0 8,-4 C8,-8 2,-8 0,-4Z" fill="#FF8DA1" opacity="0.25"/>
    </g><g transform="translate(97.8238538818656,376.55306307277925) rotate(77.90336465267778) scale(0.7848639375854879)">
      <path d="M0,-4 C-2,-8 -8,-8 -8,-4 C-8,0 -2,4 0,8 C2,4 8,0 8,-4 C8,-8 2,-8 0,-4Z" fill="#FF8DA1" opacity="0.25"/>
    </g><g transform="translate(4.115389291304526,1102.0621429216696) rotate(240.90000987136736) scale(0.6246763004685532)">
      <path d="M0,-4 C-2,-8 -8,-8 -8,-4 C-8,0 -2,4 0,8 C2,4 8,0 8,-4 C8,-8 2,-8 0,-4Z" fill="#FF8DA1" opacity="0.25"/>
    </g><g transform="translate(547.7040891979859,1387.8873748591984) rotate(229.5659172437768) scale(0.4298160789346472)">
      <path d="M0,-4 C-2,-8 -8,-8 -8,-4 C-8,0 -2,4 0,8 C2,4 8,0 8,-4 C8,-8 2,-8 0,-4Z" fill="#FF8DA1" opacity="0.25"/>
    </g><g transform="translate(431.9380820094962,1150.041641993487) rotate(262.0343747381441) scale(0.622893076411349)">
      <path d="M0,-4 C-2,-8 -8,-8 -8,-4 C-8,0 -2,4 0,8 C2,4 8,0 8,-4 C8,-8 2,-8 0,-4Z" fill="#FF8DA1" opacity="0.25"/>
    </g><g transform="translate(292.7488679930092,690.6849845225782) rotate(181.26239474980383) scale(0.7046975517689227)">
      <path d="M0,-4 C-2,-8 -8,-8 -8,-4 C-8,0 -2,4 0,8 C2,4 8,0 8,-4 C8,-8 2,-8 0,-4Z" fill="#FF8DA1" opacity="0.25"/>
    </g><g transform="translate(349.04435272239556,2365.3192039256164) rotate(344.6898114538657) scale(0.36663763506024855)">
      <path d="M0,-4 C-2,-8 -8,-8 -8,-4 C-8,0 -2,4 0,8 C2,4 8,0 8,-4 C8,-8 2,-8 0,-4Z" fill="#FF8DA1" opacity="0.25"/>
    </g><g transform="translate(181.46938847514744,1068.0508273356136) rotate(55.722766607741605) scale(0.5354719694568514)">
      <path d="M0,-4 C-2,-8 -8,-8 -8,-4 C-8,0 -2,4 0,8 C2,4 8,0 8,-4 C8,-8 2,-8 0,-4Z" fill="#FF8DA1" opacity="0.25"/>
    </g><g transform="translate(383.42390580421676,616.7643344185914) rotate(116.06606354570582) scale(0.3746213601200109)">
      <path d="M0,-4 C-2,-8 -8,-8 -8,-4 C-8,0 -2,4 0,8 C2,4 8,0 8,-4 C8,-8 2,-8 0,-4Z" fill="#FF8DA1" opacity="0.25"/>
    </g><g transform="translate(538.5153816440286,1284.064012471646) rotate(150.24826250062162) scale(0.3966388216210891)">
      <path d="M0,-4 C-2,-8 -8,-8 -8,-4 C-8,0 -2,4 0,8 C2,4 8,0 8,-4 C8,-8 2,-8 0,-4Z" fill="#FF8DA1" opacity="0.25"/>
    </g>
    
  </g>
  
      <path d="M -50,120 Q 50,70 150,110 Q 250,60 350,100 Q 450,70 550,110 Q 650,60 750,100 Q 850,120 900,120 L 900,-50 L -50,-50 Z" fill="#FFF5F7"/>
      <path d="M -50,2300 Q 100,2250 250,2300 Q 400,2250 550,2300 Q 700,2250 850,2300 L 900,2500 L -50,2500 Z" fill="#FFF5F7"/>

      <!-- Slot Borders -->
      
        <rect x="80" y="440" width="640" height="480" fill="none" stroke="#FF8DA1" stroke-width="7" rx="15"/>
        <rect x="84" y="444" width="632" height="472" fill="none" stroke="white" stroke-width="3" rx="11"/>
      

        <rect x="80" y="980" width="640" height="480" fill="none" stroke="#FF8DA1" stroke-width="7" rx="15"/>
        <rect x="84" y="984" width="632" height="472" fill="none" stroke="white" stroke-width="3" rx="11"/>
      

        <rect x="80" y="1520" width="640" height="480" fill="none" stroke="#FF8DA1" stroke-width="7" rx="15"/>
        <rect x="84" y="1524" width="632" height="472" fill="none" stroke="white" stroke-width="3" rx="11"/>
      

      <!-- Cute Loopy mascot -->
      <g transform="translate(350, 20) scale(0.9)">
        <circle cx="50" cy="50" r="42" fill="#F1948A" stroke="#C0392B" stroke-width="3"/>
        <circle cx="15" cy="18" r="12" fill="#F1948A" stroke="#C0392B" stroke-width="3"/>
        <circle cx="15" cy="18" r="6" fill="#FADBD8"/>
        <circle cx="85" cy="18" r="12" fill="#F1948A" stroke="#C0392B" stroke-width="3"/>
        <circle cx="85" cy="18" r="6" fill="#FADBD8"/>
        <ellipse cx="35" cy="45" rx="4" ry="6" fill="#000"/>
        <ellipse cx="65" cy="45" rx="4" ry="6" fill="#000"/>
        <ellipse cx="50" cy="58" rx="12" ry="8" fill="#FFF"/>
        <polygon points="50,56 46,52 54,52" fill="#000"/>
        <circle cx="28" cy="54" r="6" fill="#F5B7B1"/>
        <circle cx="72" cy="54" r="6" fill="#F5B7B1"/>
        <path d="M 45,61 Q 50,65 55,61" fill="none" stroke="#000" stroke-width="2"/>
      </g>

      <!-- Bear mascot -->
      <g transform="translate(40, 2220) scale(1.1)">
        <circle cx="40" cy="50" r="35" fill="#D35400" stroke="#873600" stroke-width="3"/>
        <circle cx="15" cy="22" r="10" fill="#D35400" stroke="#873600" stroke-width="3"/>
        <circle cx="65" cy="22" r="10" fill="#D35400" stroke="#873600" stroke-width="3"/>
        <circle cx="28" cy="45" r="4" fill="#000"/>
        <circle cx="52" cy="45" r="4" fill="#000"/>
        <ellipse cx="40" cy="55" rx="10" ry="7" fill="white"/>
        <circle cx="40" cy="52" r="3" fill="#000"/>
      </g>

      <!-- Bunny mascot -->
      <g transform="translate(650, 2210) scale(1.1)">
        <ellipse cx="40" cy="60" rx="32" ry="28" fill="#FFF" stroke="#BDC3C7" stroke-width="3"/>
        <ellipse cx="25" cy="25" rx="9" ry="25" fill="#FFF" stroke="#BDC3C7" stroke-width="3" transform="rotate(-10 25 25)"/>
        <ellipse cx="25" cy="25" rx="4" ry="18" fill="#FFD1DC" transform="rotate(-10 25 25)"/>
        <ellipse cx="55" cy="25" rx="9" ry="25" fill="#FFF" stroke="#BDC3C7" stroke-width="3" transform="rotate(10 55 25)"/>
        <ellipse cx="55" cy="25" rx="4" ry="18" fill="#FFD1DC" transform="rotate(10 55 25)"/>
        <circle cx="28" cy="55" r="4" fill="#000"/>
        <circle cx="52" cy="55" r="4" fill="#000"/>
        <polygon points="40,62 37,59 43,59" fill="#FF8DA1"/>
        <circle cx="20" cy="62" r="5" fill="#FFD1DC"/>
        <circle cx="60" cy="62" r="5" fill="#FFD1DC"/>
      </g>

      <text x="400" y="2350" text-anchor="middle" font-family="'Caveat', cursive, sans-serif" font-weight="bold" font-size="28" fill="#D87093">always together ♥</text>
    
  
</svg>