<svg width="1200" height="1400" viewBox="0 0 1200 1400" xmlns="http://www.w3.org/2000/svg">
  <defs>
    <mask id="mask-cute-lavender-2">
      <rect width="100%" height="100%" fill="white"/>
      <rect x="80" y="80" width="490" height="900" fill="black" rx="20"/>
<rect x="630" y="80" width="490" height="900" fill="black" rx="20"/>
    </mask>
  </defs>
  <g mask="url(#mask-cute-lavender-2)">
    
      <rect width="100%" height="100%" fill="#F5F0FF"/>
      <!-- Thick colored border -->
      <rect x="0" y="0" width="1200" height="1400" fill="none" stroke="#C4A8E0" stroke-width="24" rx="30"/>
      <!-- Scattered pattern -->
      <g transform="translate(178.33609225073468,1043.8288628531889) rotate(204.34920175406077) scale(0.3827502716172023)">
      <path d="M0,-4 C-2,-8 -8,-8 -8,-4 C-8,0 -2,4 0,8 C2,4 8,0 8,-4 C8,-8 2,-8 0,-4Z" fill="#A07CCF" opacity="0.12"/>
    </g><g transform="translate(323.45032852464385,267.9581023454276) rotate(316.41388218515914) scale(0.7185124925975803)">
      <path d="M0,-4 C-2,-8 -8,-8 -8,-4 C-8,0 -2,4 0,8 C2,4 8,0 8,-4 C8,-8 2,-8 0,-4Z" fill="#A07CCF" opacity="0.12"/>
    </g><g transform="translate(160.39408981836783,634.0549988989299) rotate(101.422456578745) scale(0.715133031704587)">
      <path d="M0,-4 C-2,-8 -8,-8 -8,-4 C-8,0 -2,4 0,8 C2,4 8,0 8,-4 C8,-8 2,-8 0,-4Z" fill="#A07CCF" opacity="0.12"/>
    </g><g transform="translate(24.09914175430233,739.9987785518158) rotate(184.61189026442534) scale(0.6426701019915473)">
      <path d="M0,-4 C-2,-8 -8,-8 -8,-4 C-8,0 -2,4 0,8 C2,4 8,0 8,-4 C8,-8 2,-8 0,-4Z" fill="#A07CCF" opacity="0.12"/>
    </g><g transform="translate(973.470156056313,365.0670461031301) rotate(227.77944600934111) scale(0.6149471267265707)">
      <path d="M0,-4 C-2,-8 -8,-8 -8,-4 C-8,0 -2,4 0,8 C2,4 8,0 8,-4 C8,-8 2,-8 0,-4Z" fill="#A07CCF" opacity="0.12"/>
    </g><g transform="translate(163.83371219396008,878.74377861502) rotate(190.29691089903648) scale(0.45953259347894465)">
      <path d="M0,-4 C-2,-8 -8,-8 -8,-4 C-8,0 -2,4 0,8 C2,4 8,0 8,-4 C8,-8 2,-8 0,-4Z" fill="#A07CCF" opacity="0.12"/>
    </g><g transform="translate(267.27602711625025,592.8942160614713) rotate(4.831404262065332) scale(0.6475341648771746)">
      <path d="M0,-4 C-2,-8 -8,-8 -8,-4 C-8,0 -2,4 0,8 C2,4 8,0 8,-4 C8,-8 2,-8 0,-4Z" fill="#A07CCF" opacity="0.12"/>
    </g><g transform="translate(671.3807071292592,344.80700124502835) rotate(70.05354250786225) scale(0.5040279225483797)">
      <path d="M0,-4 C-2,-8 -8,-8 -8,-4 C-8,0 -2,4 0,8 C2,4 8,0 8,-4 C8,-8 2,-8 0,-4Z" fill="#A07CCF" opacity="0.12"/>
    </g><g transform="translate(632.9706626319985,394.2531756071869) rotate(226.53631538761437) scale(0.30468939310376475)">
      <path d="M0,-4 C-2,-8 -8,-8 -8,-4 C-8,0 -2,4 0,8 C2,4 8,0 8,-4 C8,-8 2,-8 0,-4Z" fill="#A07CCF" opacity="0.12"/>
    </g><g transform="translate(119.51254673256776,1221.9449555705721) rotate(208.9317171358799) scale(0.524596309917603)">
      <path d="M0,-4 C-2,-8 -8,-8 -8,-4 C-8,0 -2,4 0,8 C2,4 8,0 8,-4 C8,-8 2,-8 0,-4Z" fill="#A07CCF" opacity="0.12"/>
    </g><g transform="translate(251.23694972250325,1095.991646587841) rotate(337.3222989377773) scale(0.48985949311392335)">
      <path d="M0,-4 C-2,-8 -8,-8 -8,-4 C-8,0 -2,4 0,8 C2,4 8,0 8,-4 C8,-8 2,-8 0,-4Z" fill="#A07CCF" opacity="0.12"/>
    </g><g transform="translate(319.5947486158411,267.10468909433547) rotate(131.1450538888062) scale(0.5958994552454906)">
      <path d="M0,-4 C-2,-8 -8,-8 -8,-4 C-8,0 -2,4 0,8 C2,4 8,0 8,-4 C8,-8 2,-8 0,-4Z" fill="#A07CCF" opacity="0.12"/>
    </g><g transform="translate(783.0750007024733,865.1300808090066) rotate(170.81224723794708) scale(0.743311551067337)">
      <path d="M0,-4 C-2,-8 -8,-8 -8,-4 C-8,0 -2,4 0,8 C2,4 8,0 8,-4 C8,-8 2,-8 0,-4Z" fill="#A07CCF" opacity="0.12"/>
    </g><g transform="translate(671.4693625191873,683.1766621984324) rotate(272.5149696809379) scale(0.5679168495982111)">
      <path d="M0,-4 C-2,-8 -8,-8 -8,-4 C-8,0 -2,4 0,8 C2,4 8,0 8,-4 C8,-8 2,-8 0,-4Z" fill="#A07CCF" opacity="0.12"/>
    </g><g transform="translate(796.9870405243589,654.7254545192471) rotate(177.427098711419) scale(0.7895428349166577)">
      <path d="M0,-4 C-2,-8 -8,-8 -8,-4 C-8,0 -2,4 0,8 C2,4 8,0 8,-4 C8,-8 2,-8 0,-4Z" fill="#A07CCF" opacity="0.12"/>
    </g><g transform="translate(457.4982386617905,901.7201662079619) rotate(36.88921237074697) scale(0.37529905585134316)">
      <path d="M0,-4 C-2,-8 -8,-8 -8,-4 C-8,0 -2,4 0,8 C2,4 8,0 8,-4 C8,-8 2,-8 0,-4Z" fill="#A07CCF" opacity="0.12"/>
    </g><g transform="translate(256.6494793227403,825.7740867564213) rotate(321.37717502319924) scale(0.5089573603206848)">
      <path d="M0,-4 C-2,-8 -8,-8 -8,-4 C-8,0 -2,4 0,8 C2,4 8,0 8,-4 C8,-8 2,-8 0,-4Z" fill="#A07CCF" opacity="0.12"/>
    </g><g transform="translate(1020.6030572025134,554.847774053782) rotate(62.77044028301764) scale(0.7737661201262531)">
      <path d="M0,-4 C-2,-8 -8,-8 -8,-4 C-8,0 -2,4 0,8 C2,4 8,0 8,-4 C8,-8 2,-8 0,-4Z" fill="#A07CCF" opacity="0.12"/>
    </g><g transform="translate(609.3072094109908,1197.3187256579463) rotate(202.95032933629147) scale(0.7056513282988698)">
      <path d="M0,-4 C-2,-8 -8,-8 -8,-4 C-8,0 -2,4 0,8 C2,4 8,0 8,-4 C8,-8 2,-8 0,-4Z" fill="#A07CCF" opacity="0.12"/>
    </g><g transform="translate(1153.9546139109457,134.3957546487411) rotate(160.82250023337315) scale(0.5105208164644621)">
      <path d="M0,-4 C-2,-8 -8,-8 -8,-4 C-8,0 -2,4 0,8 C2,4 8,0 8,-4 C8,-8 2,-8 0,-4Z" fill="#A07CCF" opacity="0.12"/>
    </g><g transform="translate(212.54327000355653,1183.8711242041281) rotate(159.91717992342745) scale(0.4864236392420006)">
      <path d="M0,-4 C-2,-8 -8,-8 -8,-4 C-8,0 -2,4 0,8 C2,4 8,0 8,-4 C8,-8 2,-8 0,-4Z" fill="#A07CCF" opacity="0.12"/>
    </g><g transform="translate(1093.4817965081725,173.31387034925993) rotate(62.59281283485965) scale(0.6165102000967695)">
      <path d="M0,-4 C-2,-8 -8,-8 -8,-4 C-8,0 -2,4 0,8 C2,4 8,0 8,-4 C8,-8 2,-8 0,-4Z" fill="#A07CCF" opacity="0.12"/>
    </g><g transform="translate(258.0254765767841,1206.5575645366287) rotate(334.48186054311867) scale(0.6617816717473619)">
      <path d="M0,-4 C-2,-8 -8,-8 -8,-4 C-8,0 -2,4 0,8 C2,4 8,0 8,-4 C8,-8 2,-8 0,-4Z" fill="#A07CCF" opacity="0.12"/>
    </g><g transform="translate(788.7678261741696,491.00068192090896) rotate(309.6890576274032) scale(0.5315957709044179)">
      <path d="M0,-4 C-2,-8 -8,-8 -8,-4 C-8,0 -2,4 0,8 C2,4 8,0 8,-4 C8,-8 2,-8 0,-4Z" fill="#A07CCF" opacity="0.12"/>
    </g><g transform="translate(213.3064579342552,748.5872601611421) rotate(205.1824596572504) scale(0.6950309379911339)">
      <path d="M0,-4 C-2,-8 -8,-8 -8,-4 C-8,0 -2,4 0,8 C2,4 8,0 8,-4 C8,-8 2,-8 0,-4Z" fill="#A07CCF" opacity="0.12"/>
    </g><g transform="translate(205.33556975921204,1254.0835155677828) rotate(243.25672075455702) scale(0.4363026033028053)">
      <path d="M0,-4 C-2,-8 -8,-8 -8,-4 C-8,0 -2,4 0,8 C2,4 8,0 8,-4 C8,-8 2,-8 0,-4Z" fill="#A07CCF" opacity="0.12"/>
    </g><g transform="translate(852.3554515581162,1327.7565676977454) rotate(226.6222407916768) scale(0.6587978075806031)">
      <path d="M0,-4 C-2,-8 -8,-8 -8,-4 C-8,0 -2,4 0,8 C2,4 8,0 8,-4 C8,-8 2,-8 0,-4Z" fill="#A07CCF" opacity="0.12"/>
    </g><g transform="translate(133.3400980879926,754.8763981600073) rotate(210.68468053888967) scale(0.4455817584838548)">
      <path d="M0,-4 C-2,-8 -8,-8 -8,-4 C-8,0 -2,4 0,8 C2,4 8,0 8,-4 C8,-8 2,-8 0,-4Z" fill="#A07CCF" opacity="0.12"/>
    </g><g transform="translate(58.0899518524203,837.4680071486792) rotate(83.01887838451087) scale(0.7017144822531515)">
      <path d="M0,-4 C-2,-8 -8,-8 -8,-4 C-8,0 -2,4 0,8 C2,4 8,0 8,-4 C8,-8 2,-8 0,-4Z" fill="#A07CCF" opacity="0.12"/>
    </g><g transform="translate(994.3039206734895,76.99576344061248) rotate(6.134697837880531) scale(0.4670737500927166)">
      <path d="M0,-4 C-2,-8 -8,-8 -8,-4 C-8,0 -2,4 0,8 C2,4 8,0 8,-4 C8,-8 2,-8 0,-4Z" fill="#A07CCF" opacity="0.12"/>
    </g><g transform="translate(486.23110212965975,100.49559203954003) rotate(91.46710873718104) scale(0.524794849497075)">
      <path d="M0,-4 C-2,-8 -8,-8 -8,-4 C-8,0 -2,4 0,8 C2,4 8,0 8,-4 C8,-8 2,-8 0,-4Z" fill="#A07CCF" opacity="0.12"/>
    </g><g transform="translate(292.328824375131,432.3181055787188) rotate(269.44550215215) scale(0.7894314410532186)">
      <path d="M0,-4 C-2,-8 -8,-8 -8,-4 C-8,0 -2,4 0,8 C2,4 8,0 8,-4 C8,-8 2,-8 0,-4Z" fill="#A07CCF" opacity="0.12"/>
    </g><g transform="translate(435.184599305675,172.16093500346034) rotate(242.91835857827064) scale(0.6960157901942876)">
      <path d="M0,-4 C-2,-8 -8,-8 -8,-4 C-8,0 -2,4 0,8 C2,4 8,0 8,-4 C8,-8 2,-8 0,-4Z" fill="#A07CCF" opacity="0.12"/>
    </g><g transform="translate(1096.1784710140698,1250.1570036170604) rotate(27.13706885197858) scale(0.3674146300343933)">
      <path d="M0,-4 C-2,-8 -8,-8 -8,-4 C-8,0 -2,4 0,8 C2,4 8,0 8,-4 C8,-8 2,-8 0,-4Z" fill="#A07CCF" opacity="0.12"/>
    </g><g transform="translate(1109.0626676651302,485.6321857177021) rotate(335.1332725539182) scale(0.30719732605591166)">
      <path d="M0,-4 C-2,-8 -8,-8 -8,-4 C-8,0 -2,4 0,8 C2,4 8,0 8,-4 C8,-8 2,-8 0,-4Z" fill="#A07CCF" opacity="0.12"/>
    </g><g transform="translate(83.04002721145751,62.70376486955561) rotate(198.17232752048628) scale(0.6793523673707176)">
      <path d="M0,-4 C-2,-8 -8,-8 -8,-4 C-8,0 -2,4 0,8 C2,4 8,0 8,-4 C8,-8 2,-8 0,-4Z" fill="#A07CCF" opacity="0.12"/>
    </g><g transform="translate(1074.3663443945034,554.3430915608473) rotate(136.6241023285539) scale(0.7444094576820819)">
      <path d="M0,-4 C-2,-8 -8,-8 -8,-4 C-8,0 -2,4 0,8 C2,4 8,0 8,-4 C8,-8 2,-8 0,-4Z" fill="#A07CCF" opacity="0.12"/>
    </g><g transform="translate(537.6319471165835,1376.8304344050869) rotate(100.90357218021859) scale(0.724682581261436)">
      <path d="M0,-4 C-2,-8 -8,-8 -8,-4 C-8,0 -2,4 0,8 C2,4 8,0 8,-4 C8,-8 2,-8 0,-4Z" fill="#A07CCF" opacity="0.12"/>
    </g><g transform="translate(954.4655356132105,119.30213442007278) rotate(127.28615005247869) scale(0.4110654360252111)">
      <path d="M0,-4 C-2,-8 -8,-8 -8,-4 C-8,0 -2,4 0,8 C2,4 8,0 8,-4 C8,-8 2,-8 0,-4Z" fill="#A07CCF" opacity="0.12"/>
    </g><g transform="translate(594.419177430141,470.30644209152683) rotate(272.1594777444) scale(0.31442125278005495)">
      <path d="M0,-4 C-2,-8 -8,-8 -8,-4 C-8,0 -2,4 0,8 C2,4 8,0 8,-4 C8,-8 2,-8 0,-4Z" fill="#A07CCF" opacity="0.12"/>
    </g>
    
  </g>
  
    <g transform="translate(600,35)">
      <ellipse cx="-14" cy="0" rx="14" ry="8.4" fill="#A07CCF" transform="rotate(-20)"/>
      <ellipse cx="14" cy="0" rx="14" ry="8.4" fill="#A07CCF" transform="rotate(20)"/>
      <circle cx="0" cy="0" r="4.2" fill="#A07CCF"/>
      <path d="M-2.8000000000000003,2.8000000000000003 L-5.6000000000000005,16.8" stroke="#A07CCF" stroke-width="3" fill="none"/>
      <path d="M2.8000000000000003,2.8000000000000003 L5.6000000000000005,16.8" stroke="#A07CCF" stroke-width="3" fill="none"/>
    </g>
  <rect x="80" y="80" width="490" height="900" fill="none" stroke="#C4A8E0" stroke-width="5" rx="20"/>
       <rect x="85" y="85" width="480" height="890" fill="none" stroke="white" stroke-width="2" rx="20" opacity="0.6"/>
<rect x="630" y="80" width="490" height="900" fill="none" stroke="#C4A8E0" stroke-width="5" rx="20"/>
       <rect x="635" y="85" width="480" height="890" fill="none" stroke="white" stroke-width="2" rx="20" opacity="0.6"/><polygon points="72,66 74,70 78,72 74,74 72,78 70,74 66,72 70,70" fill="#A07CCF" opacity="0.5"/>
<polygon points="1116,66 1118,70 1122,72 1118,74 1116,78 1114,74 1110,72 1114,70" fill="#A07CCF" opacity="0.5"/>
  
      <text x="600" y="1325" text-anchor="middle" font-family="'Caveat', cursive, sans-serif" font-size="36" font-weight="bold" fill="#A07CCF" letter-spacing="1">BaliSnap Studio</text>
      <g transform="translate(251.01021141839232,789.3499638320412) rotate(179.6584464978971) scale(0.3403254311907342)">
      <path d="M0,-4 C-2,-8 -8,-8 -8,-4 C-8,0 -2,4 0,8 C2,4 8,0 8,-4 C8,-8 2,-8 0,-4Z" fill="#A07CCF" opacity="0.3"/>
    </g><g transform="translate(665.0390050048372,553.1080780114122) rotate(126.94973817742407) scale(0.7182588396763977)">
      <path d="M0,-4 C-2,-8 -8,-8 -8,-4 C-8,0 -2,4 0,8 C2,4 8,0 8,-4 C8,-8 2,-8 0,-4Z" fill="#A07CCF" opacity="0.3"/>
    </g><g transform="translate(947.5045728939627,768.4718217872752) rotate(49.50283286115418) scale(0.37919728390797725)">
      <path d="M0,-4 C-2,-8 -8,-8 -8,-4 C-8,0 -2,4 0,8 C2,4 8,0 8,-4 C8,-8 2,-8 0,-4Z" fill="#A07CCF" opacity="0.3"/>
    </g><g transform="translate(113.71442444037127,864.8684100386394) rotate(342.0373752918443) scale(0.5089888171376555)">
      <path d="M0,-4 C-2,-8 -8,-8 -8,-4 C-8,0 -2,4 0,8 C2,4 8,0 8,-4 C8,-8 2,-8 0,-4Z" fill="#A07CCF" opacity="0.3"/>
    </g><g transform="translate(473.8889016899177,271.6744168863394) rotate(80.9064513639607) scale(0.46612794475269315)">
      <path d="M0,-4 C-2,-8 -8,-8 -8,-4 C-8,0 -2,4 0,8 C2,4 8,0 8,-4 C8,-8 2,-8 0,-4Z" fill="#A07CCF" opacity="0.3"/>
    </g>
    
</svg>