<svg width="1200" height="1500" viewBox="0 0 1200 1500" xmlns="http://www.w3.org/2000/svg">
  <defs>
    <mask id="mask-cute-hearts-1">
      <rect width="100%" height="100%" fill="white"/>
      <rect x="90" y="90" width="1020" height="1020" fill="black" rx="25"/>
    </mask>
  </defs>
  <g mask="url(#mask-cute-hearts-1)">
    
      <rect width="100%" height="100%" fill="#FFF0F5"/>
      <!-- Thick colored border -->
      <rect x="0" y="0" width="1200" height="1500" fill="none" stroke="#FFB6C1" stroke-width="24" rx="30"/>
      <!-- Scattered pattern -->
      <g transform="translate(105.33326557402803,420.2538369412104) rotate(210.0482947659197) scale(0.7020819737595339)">
      <path d="M0,-4 C-2,-8 -8,-8 -8,-4 C-8,0 -2,4 0,8 C2,4 8,0 8,-4 C8,-8 2,-8 0,-4Z" fill="#FF69B4" opacity="0.12"/>
    </g><g transform="translate(405.6376809306794,440.6370231328877) rotate(232.1825935246261) scale(0.3954853616147166)">
      <path d="M0,-4 C-2,-8 -8,-8 -8,-4 C-8,0 -2,4 0,8 C2,4 8,0 8,-4 C8,-8 2,-8 0,-4Z" fill="#FF69B4" opacity="0.12"/>
    </g><g transform="translate(842.8345622893745,900.6139907525982) rotate(88.69579221000502) scale(0.33978242309743767)">
      <path d="M0,-4 C-2,-8 -8,-8 -8,-4 C-8,0 -2,4 0,8 C2,4 8,0 8,-4 C8,-8 2,-8 0,-4Z" fill="#FF69B4" opacity="0.12"/>
    </g><g transform="translate(1033.939322860855,272.7507769807715) rotate(192.96396929115426) scale(0.3407727733634159)">
      <path d="M0,-4 C-2,-8 -8,-8 -8,-4 C-8,0 -2,4 0,8 C2,4 8,0 8,-4 C8,-8 2,-8 0,-4Z" fill="#FF69B4" opacity="0.12"/>
    </g><g transform="translate(884.7772789045956,64.66127006771161) rotate(252.44024786394112) scale(0.553992420392104)">
      <path d="M0,-4 C-2,-8 -8,-8 -8,-4 C-8,0 -2,4 0,8 C2,4 8,0 8,-4 C8,-8 2,-8 0,-4Z" fill="#FF69B4" opacity="0.12"/>
    </g><g transform="translate(544.1556365640421,529.7360804674552) rotate(326.8691528838772) scale(0.5581040032749102)">
      <path d="M0,-4 C-2,-8 -8,-8 -8,-4 C-8,0 -2,4 0,8 C2,4 8,0 8,-4 C8,-8 2,-8 0,-4Z" fill="#FF69B4" opacity="0.12"/>
    </g><g transform="translate(299.50926164119437,1315.209313822174) rotate(104.00271483138457) scale(0.5409796183844838)">
      <path d="M0,-4 C-2,-8 -8,-8 -8,-4 C-8,0 -2,4 0,8 C2,4 8,0 8,-4 C8,-8 2,-8 0,-4Z" fill="#FF69B4" opacity="0.12"/>
    </g><g transform="translate(578.7672484095835,176.4361017164179) rotate(345.36795486264674) scale(0.7538573021570755)">
      <path d="M0,-4 C-2,-8 -8,-8 -8,-4 C-8,0 -2,4 0,8 C2,4 8,0 8,-4 C8,-8 2,-8 0,-4Z" fill="#FF69B4" opacity="0.12"/>
    </g><g transform="translate(1064.0583033338733,34.881494738982525) rotate(265.1051339182119) scale(0.7177645148409201)">
      <path d="M0,-4 C-2,-8 -8,-8 -8,-4 C-8,0 -2,4 0,8 C2,4 8,0 8,-4 C8,-8 2,-8 0,-4Z" fill="#FF69B4" opacity="0.12"/>
    </g><g transform="translate(873.2883534145433,196.6979933871869) rotate(79.50706412969815) scale(0.7677283528425995)">
      <path d="M0,-4 C-2,-8 -8,-8 -8,-4 C-8,0 -2,4 0,8 C2,4 8,0 8,-4 C8,-8 2,-8 0,-4Z" fill="#FF69B4" opacity="0.12"/>
    </g><g transform="translate(1050.7634101908313,1225.7953064756423) rotate(229.3936042575106) scale(0.6139060272964705)">
      <path d="M0,-4 C-2,-8 -8,-8 -8,-4 C-8,0 -2,4 0,8 C2,4 8,0 8,-4 C8,-8 2,-8 0,-4Z" fill="#FF69B4" opacity="0.12"/>
    </g><g transform="translate(594.3592602334537,745.1143541793473) rotate(79.09951118668496) scale(0.6789855333780734)">
      <path d="M0,-4 C-2,-8 -8,-8 -8,-4 C-8,0 -2,4 0,8 C2,4 8,0 8,-4 C8,-8 2,-8 0,-4Z" fill="#FF69B4" opacity="0.12"/>
    </g><g transform="translate(1018.2890433988431,1479.9422831087768) rotate(103.06044943915722) scale(0.42998412189072377)">
      <path d="M0,-4 C-2,-8 -8,-8 -8,-4 C-8,0 -2,4 0,8 C2,4 8,0 8,-4 C8,-8 2,-8 0,-4Z" fill="#FF69B4" opacity="0.12"/>
    </g><g transform="translate(589.919115779846,463.2296077564634) rotate(223.57291849662823) scale(0.46667522552113533)">
      <path d="M0,-4 C-2,-8 -8,-8 -8,-4 C-8,0 -2,4 0,8 C2,4 8,0 8,-4 C8,-8 2,-8 0,-4Z" fill="#FF69B4" opacity="0.12"/>
    </g><g transform="translate(900.1408017241775,333.0711557837866) rotate(76.37715452944595) scale(0.7756414636277048)">
      <path d="M0,-4 C-2,-8 -8,-8 -8,-4 C-8,0 -2,4 0,8 C2,4 8,0 8,-4 C8,-8 2,-8 0,-4Z" fill="#FF69B4" opacity="0.12"/>
    </g><g transform="translate(902.7946536455254,587.1826825544076) rotate(19.947416633318568) scale(0.39311761180229265)">
      <path d="M0,-4 C-2,-8 -8,-8 -8,-4 C-8,0 -2,4 0,8 C2,4 8,0 8,-4 C8,-8 2,-8 0,-4Z" fill="#FF69B4" opacity="0.12"/>
    </g><g transform="translate(320.78005813134837,1188.0548681952569) rotate(302.4359956406392) scale(0.679390732971384)">
      <path d="M0,-4 C-2,-8 -8,-8 -8,-4 C-8,0 -2,4 0,8 C2,4 8,0 8,-4 C8,-8 2,-8 0,-4Z" fill="#FF69B4" opacity="0.12"/>
    </g><g transform="translate(672.5972755556901,428.01798966528656) rotate(83.56497664336578) scale(0.6994535646861918)">
      <path d="M0,-4 C-2,-8 -8,-8 -8,-4 C-8,0 -2,4 0,8 C2,4 8,0 8,-4 C8,-8 2,-8 0,-4Z" fill="#FF69B4" opacity="0.12"/>
    </g><g transform="translate(388.54869472659067,1422.398275623469) rotate(22.58821854608899) scale(0.5492730035439813)">
      <path d="M0,-4 C-2,-8 -8,-8 -8,-4 C-8,0 -2,4 0,8 C2,4 8,0 8,-4 C8,-8 2,-8 0,-4Z" fill="#FF69B4" opacity="0.12"/>
    </g><g transform="translate(667.3058158413562,261.06376784021387) rotate(357.24228797223634) scale(0.3662519287469349)">
      <path d="M0,-4 C-2,-8 -8,-8 -8,-4 C-8,0 -2,4 0,8 C2,4 8,0 8,-4 C8,-8 2,-8 0,-4Z" fill="#FF69B4" opacity="0.12"/>
    </g><g transform="translate(303.7799027783609,1036.0412623603281) rotate(28.92866863769355) scale(0.5485000402652659)">
      <path d="M0,-4 C-2,-8 -8,-8 -8,-4 C-8,0 -2,4 0,8 C2,4 8,0 8,-4 C8,-8 2,-8 0,-4Z" fill="#FF69B4" opacity="0.12"/>
    </g><g transform="translate(680.4546157647434,500.9140297779013) rotate(220.9256725766935) scale(0.5873687653684698)">
      <path d="M0,-4 C-2,-8 -8,-8 -8,-4 C-8,0 -2,4 0,8 C2,4 8,0 8,-4 C8,-8 2,-8 0,-4Z" fill="#FF69B4" opacity="0.12"/>
    </g><g transform="translate(192.6002826472747,791.1979209549705) rotate(197.58525281919654) scale(0.3544876789715958)">
      <path d="M0,-4 C-2,-8 -8,-8 -8,-4 C-8,0 -2,4 0,8 C2,4 8,0 8,-4 C8,-8 2,-8 0,-4Z" fill="#FF69B4" opacity="0.12"/>
    </g><g transform="translate(584.4846775610788,292.47573231577474) rotate(233.08581416782533) scale(0.34654749370789856)">
      <path d="M0,-4 C-2,-8 -8,-8 -8,-4 C-8,0 -2,4 0,8 C2,4 8,0 8,-4 C8,-8 2,-8 0,-4Z" fill="#FF69B4" opacity="0.12"/>
    </g><g transform="translate(1044.2657063196093,1217.1591655045368) rotate(332.5753165339821) scale(0.7313656160900048)">
      <path d="M0,-4 C-2,-8 -8,-8 -8,-4 C-8,0 -2,4 0,8 C2,4 8,0 8,-4 C8,-8 2,-8 0,-4Z" fill="#FF69B4" opacity="0.12"/>
    </g><g transform="translate(777.817337380552,1469.9908238556152) rotate(0.06656236952781898) scale(0.6785922586718502)">
      <path d="M0,-4 C-2,-8 -8,-8 -8,-4 C-8,0 -2,4 0,8 C2,4 8,0 8,-4 C8,-8 2,-8 0,-4Z" fill="#FF69B4" opacity="0.12"/>
    </g><g transform="translate(129.05520492145345,788.5468702656653) rotate(28.811396256844883) scale(0.5024180409055371)">
      <path d="M0,-4 C-2,-8 -8,-8 -8,-4 C-8,0 -2,4 0,8 C2,4 8,0 8,-4 C8,-8 2,-8 0,-4Z" fill="#FF69B4" opacity="0.12"/>
    </g><g transform="translate(110.46493548011867,230.22392623147363) rotate(253.20400252305345) scale(0.5911793699405895)">
      <path d="M0,-4 C-2,-8 -8,-8 -8,-4 C-8,0 -2,4 0,8 C2,4 8,0 8,-4 C8,-8 2,-8 0,-4Z" fill="#FF69B4" opacity="0.12"/>
    </g><g transform="translate(132.2374687830335,143.93274080374533) rotate(354.27948267597657) scale(0.6591951004780784)">
      <path d="M0,-4 C-2,-8 -8,-8 -8,-4 C-8,0 -2,4 0,8 C2,4 8,0 8,-4 C8,-8 2,-8 0,-4Z" fill="#FF69B4" opacity="0.12"/>
    </g><g transform="translate(1117.5512663252198,355.167216020792) rotate(103.84770695478441) scale(0.5651362070023419)">
      <path d="M0,-4 C-2,-8 -8,-8 -8,-4 C-8,0 -2,4 0,8 C2,4 8,0 8,-4 C8,-8 2,-8 0,-4Z" fill="#FF69B4" opacity="0.12"/>
    </g><g transform="translate(294.7093122589489,974.2727763711221) rotate(160.44168857898723) scale(0.5008521945223698)">
      <path d="M0,-4 C-2,-8 -8,-8 -8,-4 C-8,0 -2,4 0,8 C2,4 8,0 8,-4 C8,-8 2,-8 0,-4Z" fill="#FF69B4" opacity="0.12"/>
    </g><g transform="translate(478.20502918046435,989.9138561356011) rotate(16.2119244190044) scale(0.6273946876427109)">
      <path d="M0,-4 C-2,-8 -8,-8 -8,-4 C-8,0 -2,4 0,8 C2,4 8,0 8,-4 C8,-8 2,-8 0,-4Z" fill="#FF69B4" opacity="0.12"/>
    </g><g transform="translate(1046.0546693262222,1301.035713219117) rotate(258.15216434947416) scale(0.6357445435465728)">
      <path d="M0,-4 C-2,-8 -8,-8 -8,-4 C-8,0 -2,4 0,8 C2,4 8,0 8,-4 C8,-8 2,-8 0,-4Z" fill="#FF69B4" opacity="0.12"/>
    </g><g transform="translate(144.75672854553602,657.9311540424183) rotate(41.700798460935054) scale(0.749637527065014)">
      <path d="M0,-4 C-2,-8 -8,-8 -8,-4 C-8,0 -2,4 0,8 C2,4 8,0 8,-4 C8,-8 2,-8 0,-4Z" fill="#FF69B4" opacity="0.12"/>
    </g><g transform="translate(1017.7407467903017,460.91591330330436) rotate(3.6221135627684307) scale(0.5045876734932769)">
      <path d="M0,-4 C-2,-8 -8,-8 -8,-4 C-8,0 -2,4 0,8 C2,4 8,0 8,-4 C8,-8 2,-8 0,-4Z" fill="#FF69B4" opacity="0.12"/>
    </g><g transform="translate(122.88479481161087,155.94353518070983) rotate(265.6573155947563) scale(0.44766876692666563)">
      <path d="M0,-4 C-2,-8 -8,-8 -8,-4 C-8,0 -2,4 0,8 C2,4 8,0 8,-4 C8,-8 2,-8 0,-4Z" fill="#FF69B4" opacity="0.12"/>
    </g><g transform="translate(608.3464644927033,598.7916987843735) rotate(79.63003804872747) scale(0.430696173879035)">
      <path d="M0,-4 C-2,-8 -8,-8 -8,-4 C-8,0 -2,4 0,8 C2,4 8,0 8,-4 C8,-8 2,-8 0,-4Z" fill="#FF69B4" opacity="0.12"/>
    </g><g transform="translate(740.1722639241929,1094.0542156752704) rotate(250.9845397723695) scale(0.5564020103368927)">
      <path d="M0,-4 C-2,-8 -8,-8 -8,-4 C-8,0 -2,4 0,8 C2,4 8,0 8,-4 C8,-8 2,-8 0,-4Z" fill="#FF69B4" opacity="0.12"/>
    </g><g transform="translate(590.5360244126394,1423.7088413664221) rotate(234.8440284979008) scale(0.39149914732342506)">
      <path d="M0,-4 C-2,-8 -8,-8 -8,-4 C-8,0 -2,4 0,8 C2,4 8,0 8,-4 C8,-8 2,-8 0,-4Z" fill="#FF69B4" opacity="0.12"/>
    </g><g transform="translate(1145.2931457620982,1177.376564524487) rotate(185.58150178341333) scale(0.35597416246866265)">
      <path d="M0,-4 C-2,-8 -8,-8 -8,-4 C-8,0 -2,4 0,8 C2,4 8,0 8,-4 C8,-8 2,-8 0,-4Z" fill="#FF69B4" opacity="0.12"/>
    </g>
    
  </g>
  
    <g transform="translate(600,35)">
      <ellipse cx="-14" cy="0" rx="14" ry="8.4" fill="#FF69B4" transform="rotate(-20)"/>
      <ellipse cx="14" cy="0" rx="14" ry="8.4" fill="#FF69B4" transform="rotate(20)"/>
      <circle cx="0" cy="0" r="4.2" fill="#FF69B4"/>
      <path d="M-2.8000000000000003,2.8000000000000003 L-5.6000000000000005,16.8" stroke="#FF69B4" stroke-width="3" fill="none"/>
      <path d="M2.8000000000000003,2.8000000000000003 L5.6000000000000005,16.8" stroke="#FF69B4" stroke-width="3" fill="none"/>
    </g>
  <rect x="90" y="90" width="1020" height="1020" fill="none" stroke="#FFB6C1" stroke-width="5" rx="25"/>
       <rect x="95" y="95" width="1010" height="1010" fill="none" stroke="white" stroke-width="2" rx="25" opacity="0.6"/><polygon points="82,76 84,80 88,82 84,84 82,88 80,84 76,82 80,80" fill="#FF69B4" opacity="0.5"/>
  
      <text x="600" y="1425" text-anchor="middle" font-family="'Caveat', cursive, sans-serif" font-size="36" font-weight="bold" fill="#FF69B4" letter-spacing="1">BaliSnap Studio</text>
      <g transform="translate(178.0073847416857,198.4772434443955) rotate(185.35753950975607) scale(0.6596571333330656)">
      <path d="M0,-4 C-2,-8 -8,-8 -8,-4 C-8,0 -2,4 0,8 C2,4 8,0 8,-4 C8,-8 2,-8 0,-4Z" fill="#FF69B4" opacity="0.3"/>
    </g><g transform="translate(747.2263574108728,738.957972488327) rotate(42.718449516890985) scale(0.39523170869353386)">
      <path d="M0,-4 C-2,-8 -8,-8 -8,-4 C-8,0 -2,4 0,8 C2,4 8,0 8,-4 C8,-8 2,-8 0,-4Z" fill="#FF69B4" opacity="0.3"/>
    </g><g transform="translate(429.9450448061759,1034.1030979846632) rotate(36.776168492414214) scale(0.5038466755336585)">
      <path d="M0,-4 C-2,-8 -8,-8 -8,-4 C-8,0 -2,4 0,8 C2,4 8,0 8,-4 C8,-8 2,-8 0,-4Z" fill="#FF69B4" opacity="0.3"/>
    </g><g transform="translate(1123.554605546924,445.965362569285) rotate(350.3894543185732) scale(0.7070914887423548)">
      <path d="M0,-4 C-2,-8 -8,-8 -8,-4 C-8,0 -2,4 0,8 C2,4 8,0 8,-4 C8,-8 2,-8 0,-4Z" fill="#FF69B4" opacity="0.3"/>
    </g><g transform="translate(385.1960245382004,1387.8559222331792) rotate(105.56725321856072) scale(0.4051732384182264)">
      <path d="M0,-4 C-2,-8 -8,-8 -8,-4 C-8,0 -2,4 0,8 C2,4 8,0 8,-4 C8,-8 2,-8 0,-4Z" fill="#FF69B4" opacity="0.3"/>
    </g>
    
</svg>