<svg width="1200" height="2000" viewBox="0 0 1200 2000" xmlns="http://www.w3.org/2000/svg">
  <defs>
    <mask id="mask-film-mini-8">
      <rect width="100%" height="100%" fill="white"/>
      <rect x="65" y="55" width="510" height="340" fill="black" rx="0"/>
<rect x="625" y="55" width="510" height="340" fill="black" rx="0"/>
<rect x="65" y="445" width="510" height="340" fill="black" rx="0"/>
<rect x="625" y="445" width="510" height="340" fill="black" rx="0"/>
<rect x="65" y="835" width="510" height="340" fill="black" rx="0"/>
<rect x="625" y="835" width="510" height="340" fill="black" rx="0"/>
<rect x="65" y="1225" width="510" height="340" fill="black" rx="0"/>
<rect x="625" y="1225" width="510" height="340" fill="black" rx="0"/>
    </mask>
  </defs>
  <g mask="url(#mask-film-mini-8)">
    
      <rect width="100%" height="100%" fill="#111111"/>
      <!-- Left sprocket holes -->
      <rect x="12" y="55" width="22" height="16" rx="3" fill="#1a1a1a"/><rect x="12" y="110" width="22" height="16" rx="3" fill="#1a1a1a"/><rect x="12" y="165" width="22" height="16" rx="3" fill="#1a1a1a"/><rect x="12" y="220" width="22" height="16" rx="3" fill="#1a1a1a"/><rect x="12" y="275" width="22" height="16" rx="3" fill="#1a1a1a"/><rect x="12" y="330" width="22" height="16" rx="3" fill="#1a1a1a"/><rect x="12" y="385" width="22" height="16" rx="3" fill="#1a1a1a"/><rect x="12" y="440" width="22" height="16" rx="3" fill="#1a1a1a"/><rect x="12" y="495" width="22" height="16" rx="3" fill="#1a1a1a"/><rect x="12" y="550" width="22" height="16" rx="3" fill="#1a1a1a"/><rect x="12" y="605" width="22" height="16" rx="3" fill="#1a1a1a"/><rect x="12" y="660" width="22" height="16" rx="3" fill="#1a1a1a"/><rect x="12" y="715" width="22" height="16" rx="3" fill="#1a1a1a"/><rect x="12" y="770" width="22" height="16" rx="3" fill="#1a1a1a"/><rect x="12" y="825" width="22" height="16" rx="3" fill="#1a1a1a"/><rect x="12" y="880" width="22" height="16" rx="3" fill="#1a1a1a"/><rect x="12" y="935" width="22" height="16" rx="3" fill="#1a1a1a"/><rect x="12" y="990" width="22" height="16" rx="3" fill="#1a1a1a"/><rect x="12" y="1045" width="22" height="16" rx="3" fill="#1a1a1a"/><rect x="12" y="1100" width="22" height="16" rx="3" fill="#1a1a1a"/><rect x="12" y="1155" width="22" height="16" rx="3" fill="#1a1a1a"/><rect x="12" y="1210" width="22" height="16" rx="3" fill="#1a1a1a"/><rect x="12" y="1265" width="22" height="16" rx="3" fill="#1a1a1a"/><rect x="12" y="1320" width="22" height="16" rx="3" fill="#1a1a1a"/><rect x="12" y="1375" width="22" height="16" rx="3" fill="#1a1a1a"/><rect x="12" y="1430" width="22" height="16" rx="3" fill="#1a1a1a"/><rect x="12" y="1485" width="22" height="16" rx="3" fill="#1a1a1a"/><rect x="12" y="1540" width="22" height="16" rx="3" fill="#1a1a1a"/><rect x="12" y="1595" width="22" height="16" rx="3" fill="#1a1a1a"/><rect x="12" y="1650" width="22" height="16" rx="3" fill="#1a1a1a"/><rect x="12" y="1705" width="22" height="16" rx="3" fill="#1a1a1a"/><rect x="12" y="1760" width="22" height="16" rx="3" fill="#1a1a1a"/><rect x="12" y="1815" width="22" height="16" rx="3" fill="#1a1a1a"/><rect x="12" y="1870" width="22" height="16" rx="3" fill="#1a1a1a"/><rect x="12" y="1925" width="22" height="16" rx="3" fill="#1a1a1a"/>
      <!-- Right sprocket holes -->
      <rect x="1166" y="55" width="22" height="16" rx="3" fill="#1a1a1a"/><rect x="1166" y="110" width="22" height="16" rx="3" fill="#1a1a1a"/><rect x="1166" y="165" width="22" height="16" rx="3" fill="#1a1a1a"/><rect x="1166" y="220" width="22" height="16" rx="3" fill="#1a1a1a"/><rect x="1166" y="275" width="22" height="16" rx="3" fill="#1a1a1a"/><rect x="1166" y="330" width="22" height="16" rx="3" fill="#1a1a1a"/><rect x="1166" y="385" width="22" height="16" rx="3" fill="#1a1a1a"/><rect x="1166" y="440" width="22" height="16" rx="3" fill="#1a1a1a"/><rect x="1166" y="495" width="22" height="16" rx="3" fill="#1a1a1a"/><rect x="1166" y="550" width="22" height="16" rx="3" fill="#1a1a1a"/><rect x="1166" y="605" width="22" height="16" rx="3" fill="#1a1a1a"/><rect x="1166" y="660" width="22" height="16" rx="3" fill="#1a1a1a"/><rect x="1166" y="715" width="22" height="16" rx="3" fill="#1a1a1a"/><rect x="1166" y="770" width="22" height="16" rx="3" fill="#1a1a1a"/><rect x="1166" y="825" width="22" height="16" rx="3" fill="#1a1a1a"/><rect x="1166" y="880" width="22" height="16" rx="3" fill="#1a1a1a"/><rect x="1166" y="935" width="22" height="16" rx="3" fill="#1a1a1a"/><rect x="1166" y="990" width="22" height="16" rx="3" fill="#1a1a1a"/><rect x="1166" y="1045" width="22" height="16" rx="3" fill="#1a1a1a"/><rect x="1166" y="1100" width="22" height="16" rx="3" fill="#1a1a1a"/><rect x="1166" y="1155" width="22" height="16" rx="3" fill="#1a1a1a"/><rect x="1166" y="1210" width="22" height="16" rx="3" fill="#1a1a1a"/><rect x="1166" y="1265" width="22" height="16" rx="3" fill="#1a1a1a"/><rect x="1166" y="1320" width="22" height="16" rx="3" fill="#1a1a1a"/><rect x="1166" y="1375" width="22" height="16" rx="3" fill="#1a1a1a"/><rect x="1166" y="1430" width="22" height="16" rx="3" fill="#1a1a1a"/><rect x="1166" y="1485" width="22" height="16" rx="3" fill="#1a1a1a"/><rect x="1166" y="1540" width="22" height="16" rx="3" fill="#1a1a1a"/><rect x="1166" y="1595" width="22" height="16" rx="3" fill="#1a1a1a"/><rect x="1166" y="1650" width="22" height="16" rx="3" fill="#1a1a1a"/><rect x="1166" y="1705" width="22" height="16" rx="3" fill="#1a1a1a"/><rect x="1166" y="1760" width="22" height="16" rx="3" fill="#1a1a1a"/><rect x="1166" y="1815" width="22" height="16" rx="3" fill="#1a1a1a"/><rect x="1166" y="1870" width="22" height="16" rx="3" fill="#1a1a1a"/><rect x="1166" y="1925" width="22" height="16" rx="3" fill="#1a1a1a"/>
    
  </g>
  
      <text x="565" y="423" text-anchor="end" font-family="monospace" font-size="18" fill="#888" letter-spacing="1">01A</text>
    
      <text x="1125" y="423" text-anchor="end" font-family="monospace" font-size="18" fill="#888" letter-spacing="1">02A</text>
    
      <text x="565" y="813" text-anchor="end" font-family="monospace" font-size="18" fill="#888" letter-spacing="1">03A</text>
    
      <text x="1125" y="813" text-anchor="end" font-family="monospace" font-size="18" fill="#888" letter-spacing="1">04A</text>
    
      <text x="565" y="1203" text-anchor="end" font-family="monospace" font-size="18" fill="#888" letter-spacing="1">05A</text>
    
      <text x="1125" y="1203" text-anchor="end" font-family="monospace" font-size="18" fill="#888" letter-spacing="1">06A</text>
    
      <text x="565" y="1593" text-anchor="end" font-family="monospace" font-size="18" fill="#888" letter-spacing="1">07A</text>
    
      <text x="1125" y="1593" text-anchor="end" font-family="monospace" font-size="18" fill="#888" letter-spacing="1">08A</text>
    
  
      <text x="600" y="1930" text-anchor="middle" font-family="monospace" font-size="28" font-weight="bold" fill="#FBBF24" letter-spacing="3">BALISNAP STUDIO</text>
      <text x="600" y="1962" text-anchor="middle" font-family="monospace" font-size="14" fill="#666" letter-spacing="2">FILM 331</text>
    
</svg>