<svg width="1200" height="1600" viewBox="0 0 1200 1600" xmlns="http://www.w3.org/2000/svg">
  <defs>
    <mask id="mask-film-contact-6">
      <rect width="100%" height="100%" fill="white"/>
      <rect x="65" y="55" width="510" height="370" fill="black" rx="0"/>
<rect x="625" y="55" width="510" height="370" fill="black" rx="0"/>
<rect x="65" y="475" width="510" height="370" fill="black" rx="0"/>
<rect x="625" y="475" width="510" height="370" fill="black" rx="0"/>
<rect x="65" y="895" width="510" height="370" fill="black" rx="0"/>
<rect x="625" y="895" width="510" height="370" fill="black" rx="0"/>
    </mask>
  </defs>
  <g mask="url(#mask-film-contact-6)">
    
      <rect width="100%" height="100%" fill="#111111"/>
      <!-- Left sprocket holes -->
      <rect x="12" y="55" width="22" height="16" rx="3" fill="#1a1a1a"/><rect x="12" y="110" width="22" height="16" rx="3" fill="#1a1a1a"/><rect x="12" y="165" width="22" height="16" rx="3" fill="#1a1a1a"/><rect x="12" y="220" width="22" height="16" rx="3" fill="#1a1a1a"/><rect x="12" y="275" width="22" height="16" rx="3" fill="#1a1a1a"/><rect x="12" y="330" width="22" height="16" rx="3" fill="#1a1a1a"/><rect x="12" y="385" width="22" height="16" rx="3" fill="#1a1a1a"/><rect x="12" y="440" width="22" height="16" rx="3" fill="#1a1a1a"/><rect x="12" y="495" width="22" height="16" rx="3" fill="#1a1a1a"/><rect x="12" y="550" width="22" height="16" rx="3" fill="#1a1a1a"/><rect x="12" y="605" width="22" height="16" rx="3" fill="#1a1a1a"/><rect x="12" y="660" width="22" height="16" rx="3" fill="#1a1a1a"/><rect x="12" y="715" width="22" height="16" rx="3" fill="#1a1a1a"/><rect x="12" y="770" width="22" height="16" rx="3" fill="#1a1a1a"/><rect x="12" y="825" width="22" height="16" rx="3" fill="#1a1a1a"/><rect x="12" y="880" width="22" height="16" rx="3" fill="#1a1a1a"/><rect x="12" y="935" width="22" height="16" rx="3" fill="#1a1a1a"/><rect x="12" y="990" width="22" height="16" rx="3" fill="#1a1a1a"/><rect x="12" y="1045" width="22" height="16" rx="3" fill="#1a1a1a"/><rect x="12" y="1100" width="22" height="16" rx="3" fill="#1a1a1a"/><rect x="12" y="1155" width="22" height="16" rx="3" fill="#1a1a1a"/><rect x="12" y="1210" width="22" height="16" rx="3" fill="#1a1a1a"/><rect x="12" y="1265" width="22" height="16" rx="3" fill="#1a1a1a"/><rect x="12" y="1320" width="22" height="16" rx="3" fill="#1a1a1a"/><rect x="12" y="1375" width="22" height="16" rx="3" fill="#1a1a1a"/><rect x="12" y="1430" width="22" height="16" rx="3" fill="#1a1a1a"/><rect x="12" y="1485" width="22" height="16" rx="3" fill="#1a1a1a"/><rect x="12" y="1540" width="22" height="16" rx="3" fill="#1a1a1a"/>
      <!-- Right sprocket holes -->
      <rect x="1166" y="55" width="22" height="16" rx="3" fill="#1a1a1a"/><rect x="1166" y="110" width="22" height="16" rx="3" fill="#1a1a1a"/><rect x="1166" y="165" width="22" height="16" rx="3" fill="#1a1a1a"/><rect x="1166" y="220" width="22" height="16" rx="3" fill="#1a1a1a"/><rect x="1166" y="275" width="22" height="16" rx="3" fill="#1a1a1a"/><rect x="1166" y="330" width="22" height="16" rx="3" fill="#1a1a1a"/><rect x="1166" y="385" width="22" height="16" rx="3" fill="#1a1a1a"/><rect x="1166" y="440" width="22" height="16" rx="3" fill="#1a1a1a"/><rect x="1166" y="495" width="22" height="16" rx="3" fill="#1a1a1a"/><rect x="1166" y="550" width="22" height="16" rx="3" fill="#1a1a1a"/><rect x="1166" y="605" width="22" height="16" rx="3" fill="#1a1a1a"/><rect x="1166" y="660" width="22" height="16" rx="3" fill="#1a1a1a"/><rect x="1166" y="715" width="22" height="16" rx="3" fill="#1a1a1a"/><rect x="1166" y="770" width="22" height="16" rx="3" fill="#1a1a1a"/><rect x="1166" y="825" width="22" height="16" rx="3" fill="#1a1a1a"/><rect x="1166" y="880" width="22" height="16" rx="3" fill="#1a1a1a"/><rect x="1166" y="935" width="22" height="16" rx="3" fill="#1a1a1a"/><rect x="1166" y="990" width="22" height="16" rx="3" fill="#1a1a1a"/><rect x="1166" y="1045" width="22" height="16" rx="3" fill="#1a1a1a"/><rect x="1166" y="1100" width="22" height="16" rx="3" fill="#1a1a1a"/><rect x="1166" y="1155" width="22" height="16" rx="3" fill="#1a1a1a"/><rect x="1166" y="1210" width="22" height="16" rx="3" fill="#1a1a1a"/><rect x="1166" y="1265" width="22" height="16" rx="3" fill="#1a1a1a"/><rect x="1166" y="1320" width="22" height="16" rx="3" fill="#1a1a1a"/><rect x="1166" y="1375" width="22" height="16" rx="3" fill="#1a1a1a"/><rect x="1166" y="1430" width="22" height="16" rx="3" fill="#1a1a1a"/><rect x="1166" y="1485" width="22" height="16" rx="3" fill="#1a1a1a"/><rect x="1166" y="1540" width="22" height="16" rx="3" fill="#1a1a1a"/>
    
  </g>
  
      <text x="565" y="453" text-anchor="end" font-family="monospace" font-size="18" fill="#888" letter-spacing="1">01A</text>
    
      <text x="1125" y="453" text-anchor="end" font-family="monospace" font-size="18" fill="#888" letter-spacing="1">02A</text>
    
      <text x="565" y="873" text-anchor="end" font-family="monospace" font-size="18" fill="#888" letter-spacing="1">03A</text>
    
      <text x="1125" y="873" text-anchor="end" font-family="monospace" font-size="18" fill="#888" letter-spacing="1">04A</text>
    
      <text x="565" y="1293" text-anchor="end" font-family="monospace" font-size="18" fill="#888" letter-spacing="1">05A</text>
    
      <text x="1125" y="1293" text-anchor="end" font-family="monospace" font-size="18" fill="#888" letter-spacing="1">06A</text>
    
  
      <text x="600" y="1530" text-anchor="middle" font-family="monospace" font-size="28" font-weight="bold" fill="#FBBF24" letter-spacing="3">BALISNAP STUDIO</text>
      <text x="600" y="1562" text-anchor="middle" font-family="monospace" font-size="14" fill="#666" letter-spacing="2">FILM 910</text>
    
</svg>