<svg width="800" height="2400" viewBox="0 0 800 2400" xmlns="http://www.w3.org/2000/svg">
  <defs>
    <mask id="mask-film-strip-3">
      <rect width="100%" height="100%" fill="white"/>
      <rect x="65" y="60" width="670" height="500" fill="black" rx="0"/>
<rect x="65" y="610" width="670" height="500" fill="black" rx="0"/>
<rect x="65" y="1160" width="670" height="500" fill="black" rx="0"/>
    </mask>
  </defs>
  <g mask="url(#mask-film-strip-3)">
    
      <rect width="100%" height="100%" fill="#111111"/>
      <!-- Left sprocket holes -->
      <rect x="12" y="55" width="22" height="16" rx="3" fill="#1a1a1a"/><rect x="12" y="110" width="22" height="16" rx="3" fill="#1a1a1a"/><rect x="12" y="165" width="22" height="16" rx="3" fill="#1a1a1a"/><rect x="12" y="220" width="22" height="16" rx="3" fill="#1a1a1a"/><rect x="12" y="275" width="22" height="16" rx="3" fill="#1a1a1a"/><rect x="12" y="330" width="22" height="16" rx="3" fill="#1a1a1a"/><rect x="12" y="385" width="22" height="16" rx="3" fill="#1a1a1a"/><rect x="12" y="440" width="22" height="16" rx="3" fill="#1a1a1a"/><rect x="12" y="495" width="22" height="16" rx="3" fill="#1a1a1a"/><rect x="12" y="550" width="22" height="16" rx="3" fill="#1a1a1a"/><rect x="12" y="605" width="22" height="16" rx="3" fill="#1a1a1a"/><rect x="12" y="660" width="22" height="16" rx="3" fill="#1a1a1a"/><rect x="12" y="715" width="22" height="16" rx="3" fill="#1a1a1a"/><rect x="12" y="770" width="22" height="16" rx="3" fill="#1a1a1a"/><rect x="12" y="825" width="22" height="16" rx="3" fill="#1a1a1a"/><rect x="12" y="880" width="22" height="16" rx="3" fill="#1a1a1a"/><rect x="12" y="935" width="22" height="16" rx="3" fill="#1a1a1a"/><rect x="12" y="990" width="22" height="16" rx="3" fill="#1a1a1a"/><rect x="12" y="1045" width="22" height="16" rx="3" fill="#1a1a1a"/><rect x="12" y="1100" width="22" height="16" rx="3" fill="#1a1a1a"/><rect x="12" y="1155" width="22" height="16" rx="3" fill="#1a1a1a"/><rect x="12" y="1210" width="22" height="16" rx="3" fill="#1a1a1a"/><rect x="12" y="1265" width="22" height="16" rx="3" fill="#1a1a1a"/><rect x="12" y="1320" width="22" height="16" rx="3" fill="#1a1a1a"/><rect x="12" y="1375" width="22" height="16" rx="3" fill="#1a1a1a"/><rect x="12" y="1430" width="22" height="16" rx="3" fill="#1a1a1a"/><rect x="12" y="1485" width="22" height="16" rx="3" fill="#1a1a1a"/><rect x="12" y="1540" width="22" height="16" rx="3" fill="#1a1a1a"/><rect x="12" y="1595" width="22" height="16" rx="3" fill="#1a1a1a"/><rect x="12" y="1650" width="22" height="16" rx="3" fill="#1a1a1a"/><rect x="12" y="1705" width="22" height="16" rx="3" fill="#1a1a1a"/><rect x="12" y="1760" width="22" height="16" rx="3" fill="#1a1a1a"/><rect x="12" y="1815" width="22" height="16" rx="3" fill="#1a1a1a"/><rect x="12" y="1870" width="22" height="16" rx="3" fill="#1a1a1a"/><rect x="12" y="1925" width="22" height="16" rx="3" fill="#1a1a1a"/><rect x="12" y="1980" width="22" height="16" rx="3" fill="#1a1a1a"/><rect x="12" y="2035" width="22" height="16" rx="3" fill="#1a1a1a"/><rect x="12" y="2090" width="22" height="16" rx="3" fill="#1a1a1a"/><rect x="12" y="2145" width="22" height="16" rx="3" fill="#1a1a1a"/><rect x="12" y="2200" width="22" height="16" rx="3" fill="#1a1a1a"/><rect x="12" y="2255" width="22" height="16" rx="3" fill="#1a1a1a"/><rect x="12" y="2310" width="22" height="16" rx="3" fill="#1a1a1a"/>
      <!-- Right sprocket holes -->
      <rect x="766" y="55" width="22" height="16" rx="3" fill="#1a1a1a"/><rect x="766" y="110" width="22" height="16" rx="3" fill="#1a1a1a"/><rect x="766" y="165" width="22" height="16" rx="3" fill="#1a1a1a"/><rect x="766" y="220" width="22" height="16" rx="3" fill="#1a1a1a"/><rect x="766" y="275" width="22" height="16" rx="3" fill="#1a1a1a"/><rect x="766" y="330" width="22" height="16" rx="3" fill="#1a1a1a"/><rect x="766" y="385" width="22" height="16" rx="3" fill="#1a1a1a"/><rect x="766" y="440" width="22" height="16" rx="3" fill="#1a1a1a"/><rect x="766" y="495" width="22" height="16" rx="3" fill="#1a1a1a"/><rect x="766" y="550" width="22" height="16" rx="3" fill="#1a1a1a"/><rect x="766" y="605" width="22" height="16" rx="3" fill="#1a1a1a"/><rect x="766" y="660" width="22" height="16" rx="3" fill="#1a1a1a"/><rect x="766" y="715" width="22" height="16" rx="3" fill="#1a1a1a"/><rect x="766" y="770" width="22" height="16" rx="3" fill="#1a1a1a"/><rect x="766" y="825" width="22" height="16" rx="3" fill="#1a1a1a"/><rect x="766" y="880" width="22" height="16" rx="3" fill="#1a1a1a"/><rect x="766" y="935" width="22" height="16" rx="3" fill="#1a1a1a"/><rect x="766" y="990" width="22" height="16" rx="3" fill="#1a1a1a"/><rect x="766" y="1045" width="22" height="16" rx="3" fill="#1a1a1a"/><rect x="766" y="1100" width="22" height="16" rx="3" fill="#1a1a1a"/><rect x="766" y="1155" width="22" height="16" rx="3" fill="#1a1a1a"/><rect x="766" y="1210" width="22" height="16" rx="3" fill="#1a1a1a"/><rect x="766" y="1265" width="22" height="16" rx="3" fill="#1a1a1a"/><rect x="766" y="1320" width="22" height="16" rx="3" fill="#1a1a1a"/><rect x="766" y="1375" width="22" height="16" rx="3" fill="#1a1a1a"/><rect x="766" y="1430" width="22" height="16" rx="3" fill="#1a1a1a"/><rect x="766" y="1485" width="22" height="16" rx="3" fill="#1a1a1a"/><rect x="766" y="1540" width="22" height="16" rx="3" fill="#1a1a1a"/><rect x="766" y="1595" width="22" height="16" rx="3" fill="#1a1a1a"/><rect x="766" y="1650" width="22" height="16" rx="3" fill="#1a1a1a"/><rect x="766" y="1705" width="22" height="16" rx="3" fill="#1a1a1a"/><rect x="766" y="1760" width="22" height="16" rx="3" fill="#1a1a1a"/><rect x="766" y="1815" width="22" height="16" rx="3" fill="#1a1a1a"/><rect x="766" y="1870" width="22" height="16" rx="3" fill="#1a1a1a"/><rect x="766" y="1925" width="22" height="16" rx="3" fill="#1a1a1a"/><rect x="766" y="1980" width="22" height="16" rx="3" fill="#1a1a1a"/><rect x="766" y="2035" width="22" height="16" rx="3" fill="#1a1a1a"/><rect x="766" y="2090" width="22" height="16" rx="3" fill="#1a1a1a"/><rect x="766" y="2145" width="22" height="16" rx="3" fill="#1a1a1a"/><rect x="766" y="2200" width="22" height="16" rx="3" fill="#1a1a1a"/><rect x="766" y="2255" width="22" height="16" rx="3" fill="#1a1a1a"/><rect x="766" y="2310" width="22" height="16" rx="3" fill="#1a1a1a"/>
    
  </g>
  
      <text x="725" y="588" text-anchor="end" font-family="monospace" font-size="18" fill="#888" letter-spacing="1">01A</text>
    
      <text x="725" y="1138" text-anchor="end" font-family="monospace" font-size="18" fill="#888" letter-spacing="1">02A</text>
    
      <text x="725" y="1688" text-anchor="end" font-family="monospace" font-size="18" fill="#888" letter-spacing="1">03A</text>
    
  
      <text x="400" y="2330" text-anchor="middle" font-family="monospace" font-size="28" font-weight="bold" fill="#FBBF24" letter-spacing="3">BALISNAP STUDIO</text>
      <text x="400" y="2362" text-anchor="middle" font-family="monospace" font-size="14" fill="#666" letter-spacing="2">FILM 404</text>
    
</svg>