<svg width="1200" height="1200" viewBox="0 0 1200 1200" xmlns="http://www.w3.org/2000/svg">
  <defs>
    <mask id="mask-film-contact-2x2">
      <rect width="100%" height="100%" fill="white"/>
      <rect x="65" y="55" width="510" height="420" fill="black" rx="0"/>
<rect x="625" y="55" width="510" height="420" fill="black" rx="0"/>
<rect x="65" y="525" width="510" height="420" fill="black" rx="0"/>
<rect x="625" y="525" width="510" height="420" fill="black" rx="0"/>
    </mask>
  </defs>
  <g mask="url(#mask-film-contact-2x2)">
    
      <rect width="100%" height="100%" fill="#1a1a1a"/>
      <!-- Left sprocket holes -->
      <rect x="12" y="55" width="22" height="16" rx="3" fill="#1a1a1a"/><rect x="12" y="110" width="22" height="16" rx="3" fill="#1a1a1a"/><rect x="12" y="165" width="22" height="16" rx="3" fill="#1a1a1a"/><rect x="12" y="220" width="22" height="16" rx="3" fill="#1a1a1a"/><rect x="12" y="275" width="22" height="16" rx="3" fill="#1a1a1a"/><rect x="12" y="330" width="22" height="16" rx="3" fill="#1a1a1a"/><rect x="12" y="385" width="22" height="16" rx="3" fill="#1a1a1a"/><rect x="12" y="440" width="22" height="16" rx="3" fill="#1a1a1a"/><rect x="12" y="495" width="22" height="16" rx="3" fill="#1a1a1a"/><rect x="12" y="550" width="22" height="16" rx="3" fill="#1a1a1a"/><rect x="12" y="605" width="22" height="16" rx="3" fill="#1a1a1a"/><rect x="12" y="660" width="22" height="16" rx="3" fill="#1a1a1a"/><rect x="12" y="715" width="22" height="16" rx="3" fill="#1a1a1a"/><rect x="12" y="770" width="22" height="16" rx="3" fill="#1a1a1a"/><rect x="12" y="825" width="22" height="16" rx="3" fill="#1a1a1a"/><rect x="12" y="880" width="22" height="16" rx="3" fill="#1a1a1a"/><rect x="12" y="935" width="22" height="16" rx="3" fill="#1a1a1a"/><rect x="12" y="990" width="22" height="16" rx="3" fill="#1a1a1a"/><rect x="12" y="1045" width="22" height="16" rx="3" fill="#1a1a1a"/><rect x="12" y="1100" width="22" height="16" rx="3" fill="#1a1a1a"/>
      <!-- Right sprocket holes -->
      <rect x="1166" y="55" width="22" height="16" rx="3" fill="#1a1a1a"/><rect x="1166" y="110" width="22" height="16" rx="3" fill="#1a1a1a"/><rect x="1166" y="165" width="22" height="16" rx="3" fill="#1a1a1a"/><rect x="1166" y="220" width="22" height="16" rx="3" fill="#1a1a1a"/><rect x="1166" y="275" width="22" height="16" rx="3" fill="#1a1a1a"/><rect x="1166" y="330" width="22" height="16" rx="3" fill="#1a1a1a"/><rect x="1166" y="385" width="22" height="16" rx="3" fill="#1a1a1a"/><rect x="1166" y="440" width="22" height="16" rx="3" fill="#1a1a1a"/><rect x="1166" y="495" width="22" height="16" rx="3" fill="#1a1a1a"/><rect x="1166" y="550" width="22" height="16" rx="3" fill="#1a1a1a"/><rect x="1166" y="605" width="22" height="16" rx="3" fill="#1a1a1a"/><rect x="1166" y="660" width="22" height="16" rx="3" fill="#1a1a1a"/><rect x="1166" y="715" width="22" height="16" rx="3" fill="#1a1a1a"/><rect x="1166" y="770" width="22" height="16" rx="3" fill="#1a1a1a"/><rect x="1166" y="825" width="22" height="16" rx="3" fill="#1a1a1a"/><rect x="1166" y="880" width="22" height="16" rx="3" fill="#1a1a1a"/><rect x="1166" y="935" width="22" height="16" rx="3" fill="#1a1a1a"/><rect x="1166" y="990" width="22" height="16" rx="3" fill="#1a1a1a"/><rect x="1166" y="1045" width="22" height="16" rx="3" fill="#1a1a1a"/><rect x="1166" y="1100" width="22" height="16" rx="3" fill="#1a1a1a"/>
    
  </g>
  
      <text x="565" y="503" text-anchor="end" font-family="monospace" font-size="18" fill="#888" letter-spacing="1">01A</text>
    
      <text x="1125" y="503" text-anchor="end" font-family="monospace" font-size="18" fill="#888" letter-spacing="1">02A</text>
    
      <text x="565" y="973" text-anchor="end" font-family="monospace" font-size="18" fill="#888" letter-spacing="1">03A</text>
    
      <text x="1125" y="973" text-anchor="end" font-family="monospace" font-size="18" fill="#888" letter-spacing="1">04A</text>
    
  
      <text x="600" y="1130" text-anchor="middle" font-family="monospace" font-size="28" font-weight="bold" fill="#FBBF24" letter-spacing="3">BALISNAP STUDIO</text>
      <text x="600" y="1162" text-anchor="middle" font-family="monospace" font-size="14" fill="#666" letter-spacing="2">FILM 451</text>
    
</svg>