<svg width="1200" height="1800" viewBox="0 0 1200 1800" xmlns="http://www.w3.org/2000/svg">
  <defs>
    <mask id="mask-korean-cream-6">
      <rect width="100%" height="100%" fill="white"/>
      <rect x="65" y="65" width="510" height="400" fill="black" rx="10"/>
<rect x="625" y="65" width="510" height="400" fill="black" rx="10"/>
<rect x="65" y="515" width="510" height="400" fill="black" rx="10"/>
<rect x="625" y="515" width="510" height="400" fill="black" rx="10"/>
<rect x="65" y="965" width="510" height="400" fill="black" rx="10"/>
<rect x="625" y="965" width="510" height="400" fill="black" rx="10"/>
    </mask>
  </defs>
  <g mask="url(#mask-korean-cream-6)">
    
      <rect width="100%" height="100%" fill="#FFFAF0"/>
      <!-- Thick colored outer border -->
      <rect x="0" y="0" width="1200" height="1800" fill="none" stroke="#D4C4A8" stroke-width="60" rx="20"/>
      <!-- Inner white border -->
      <rect x="30" y="30" width="1140" height="1740" fill="white" rx="12"/>
      <!-- Subtle pattern in border area -->
      <g transform="translate(1086.1839114559664,1639.5010967175488) rotate(270.4348614350286) scale(0.4930371631803337)">
      <path d="M0,-4 C-2,-8 -8,-8 -8,-4 C-8,0 -2,4 0,8 C2,4 8,0 8,-4 C8,-8 2,-8 0,-4Z" fill="#B8A88C" opacity="0.15"/>
    </g><g transform="translate(662.3894647344849,569.6069994658297) rotate(273.61925659106976) scale(0.5735693475916696)">
      <path d="M0,-4 C-2,-8 -8,-8 -8,-4 C-8,0 -2,4 0,8 C2,4 8,0 8,-4 C8,-8 2,-8 0,-4Z" fill="#B8A88C" opacity="0.15"/>
    </g><g transform="translate(262.82067341992695,40.59825431611227) rotate(125.66738997182566) scale(0.33746501662532336)">
      <path d="M0,-4 C-2,-8 -8,-8 -8,-4 C-8,0 -2,4 0,8 C2,4 8,0 8,-4 C8,-8 2,-8 0,-4Z" fill="#B8A88C" opacity="0.15"/>
    </g><g transform="translate(1106.0836347807979,1121.4757435223794) rotate(237.63916237059902) scale(0.5341185251568616)">
      <path d="M0,-4 C-2,-8 -8,-8 -8,-4 C-8,0 -2,4 0,8 C2,4 8,0 8,-4 C8,-8 2,-8 0,-4Z" fill="#B8A88C" opacity="0.15"/>
    </g><g transform="translate(538.0097340215088,494.40732011050665) rotate(325.4745708270693) scale(0.49551092078491193)">
      <path d="M0,-4 C-2,-8 -8,-8 -8,-4 C-8,0 -2,4 0,8 C2,4 8,0 8,-4 C8,-8 2,-8 0,-4Z" fill="#B8A88C" opacity="0.15"/>
    </g><g transform="translate(170.37386872840474,410.4296641521432) rotate(32.228806980167334) scale(0.4364934110422557)">
      <path d="M0,-4 C-2,-8 -8,-8 -8,-4 C-8,0 -2,4 0,8 C2,4 8,0 8,-4 C8,-8 2,-8 0,-4Z" fill="#B8A88C" opacity="0.15"/>
    </g><g transform="translate(765.20493623354,599.0500194011722) rotate(110.35424998994381) scale(0.5315792983691947)">
      <path d="M0,-4 C-2,-8 -8,-8 -8,-4 C-8,0 -2,4 0,8 C2,4 8,0 8,-4 C8,-8 2,-8 0,-4Z" fill="#B8A88C" opacity="0.15"/>
    </g><g transform="translate(12.938448798785403,384.77737669346607) rotate(295.4417772176133) scale(0.675939211925435)">
      <path d="M0,-4 C-2,-8 -8,-8 -8,-4 C-8,0 -2,4 0,8 C2,4 8,0 8,-4 C8,-8 2,-8 0,-4Z" fill="#B8A88C" opacity="0.15"/>
    </g><g transform="translate(33.167338402166344,965.1984855208532) rotate(48.346768252874504) scale(0.4363757449541016)">
      <path d="M0,-4 C-2,-8 -8,-8 -8,-4 C-8,0 -2,4 0,8 C2,4 8,0 8,-4 C8,-8 2,-8 0,-4Z" fill="#B8A88C" opacity="0.15"/>
    </g><g transform="translate(147.12155009351815,1007.8509925937755) rotate(238.40428344756762) scale(0.5643440896778779)">
      <path d="M0,-4 C-2,-8 -8,-8 -8,-4 C-8,0 -2,4 0,8 C2,4 8,0 8,-4 C8,-8 2,-8 0,-4Z" fill="#B8A88C" opacity="0.15"/>
    </g><g transform="translate(202.642849276441,327.5633915584193) rotate(157.48601142082924) scale(0.5660926238317905)">
      <path d="M0,-4 C-2,-8 -8,-8 -8,-4 C-8,0 -2,4 0,8 C2,4 8,0 8,-4 C8,-8 2,-8 0,-4Z" fill="#B8A88C" opacity="0.15"/>
    </g><g transform="translate(491.31844909053154,583.769115883642) rotate(185.54438889543005) scale(0.6909833819055775)">
      <path d="M0,-4 C-2,-8 -8,-8 -8,-4 C-8,0 -2,4 0,8 C2,4 8,0 8,-4 C8,-8 2,-8 0,-4Z" fill="#B8A88C" opacity="0.15"/>
    </g><g transform="translate(415.15176912318145,983.6846933548196) rotate(200.05352515732267) scale(0.74129100087219)">
      <path d="M0,-4 C-2,-8 -8,-8 -8,-4 C-8,0 -2,4 0,8 C2,4 8,0 8,-4 C8,-8 2,-8 0,-4Z" fill="#B8A88C" opacity="0.15"/>
    </g><g transform="translate(865.328569584832,1165.9074470083299) rotate(257.60788278431437) scale(0.4684630086351773)">
      <path d="M0,-4 C-2,-8 -8,-8 -8,-4 C-8,0 -2,4 0,8 C2,4 8,0 8,-4 C8,-8 2,-8 0,-4Z" fill="#B8A88C" opacity="0.15"/>
    </g><g transform="translate(852.289190937103,36.65220098258201) rotate(166.17995340952646) scale(0.4148765872836826)">
      <path d="M0,-4 C-2,-8 -8,-8 -8,-4 C-8,0 -2,4 0,8 C2,4 8,0 8,-4 C8,-8 2,-8 0,-4Z" fill="#B8A88C" opacity="0.15"/>
    </g><g transform="translate(354.92823566769084,118.29522030269281) rotate(46.344147181458915) scale(0.5743835523951646)">
      <path d="M0,-4 C-2,-8 -8,-8 -8,-4 C-8,0 -2,4 0,8 C2,4 8,0 8,-4 C8,-8 2,-8 0,-4Z" fill="#B8A88C" opacity="0.15"/>
    </g><g transform="translate(753.6137783467898,1780.1642521099786) rotate(115.65482507986466) scale(0.6946070465209029)">
      <path d="M0,-4 C-2,-8 -8,-8 -8,-4 C-8,0 -2,4 0,8 C2,4 8,0 8,-4 C8,-8 2,-8 0,-4Z" fill="#B8A88C" opacity="0.15"/>
    </g><g transform="translate(568.8234317757408,1523.1341919145866) rotate(231.58098644724208) scale(0.7212126875493794)">
      <path d="M0,-4 C-2,-8 -8,-8 -8,-4 C-8,0 -2,4 0,8 C2,4 8,0 8,-4 C8,-8 2,-8 0,-4Z" fill="#B8A88C" opacity="0.15"/>
    </g><g transform="translate(738.8007459592081,936.2114184873284) rotate(213.49443178018038) scale(0.6070325768152556)">
      <path d="M0,-4 C-2,-8 -8,-8 -8,-4 C-8,0 -2,4 0,8 C2,4 8,0 8,-4 C8,-8 2,-8 0,-4Z" fill="#B8A88C" opacity="0.15"/>
    </g><g transform="translate(269.7202532270181,1182.454900520346) rotate(27.39709828737853) scale(0.72208829957255)">
      <path d="M0,-4 C-2,-8 -8,-8 -8,-4 C-8,0 -2,4 0,8 C2,4 8,0 8,-4 C8,-8 2,-8 0,-4Z" fill="#B8A88C" opacity="0.15"/>
    </g><g transform="translate(76.77839629052058,621.7728677408517) rotate(238.304508624882) scale(0.6157214837295204)">
      <path d="M0,-4 C-2,-8 -8,-8 -8,-4 C-8,0 -2,4 0,8 C2,4 8,0 8,-4 C8,-8 2,-8 0,-4Z" fill="#B8A88C" opacity="0.15"/>
    </g><g transform="translate(612.9247024775713,938.2187024114828) rotate(18.699459879379216) scale(0.47826060385281277)">
      <path d="M0,-4 C-2,-8 -8,-8 -8,-4 C-8,0 -2,4 0,8 C2,4 8,0 8,-4 C8,-8 2,-8 0,-4Z" fill="#B8A88C" opacity="0.15"/>
    </g><g transform="translate(6.082879012527763,352.4353607114734) rotate(292.75754195894814) scale(0.6836441129759365)">
      <path d="M0,-4 C-2,-8 -8,-8 -8,-4 C-8,0 -2,4 0,8 C2,4 8,0 8,-4 C8,-8 2,-8 0,-4Z" fill="#B8A88C" opacity="0.15"/>
    </g><g transform="translate(853.3607675259567,51.63378170843588) rotate(114.9756592465338) scale(0.3580507934168454)">
      <path d="M0,-4 C-2,-8 -8,-8 -8,-4 C-8,0 -2,4 0,8 C2,4 8,0 8,-4 C8,-8 2,-8 0,-4Z" fill="#B8A88C" opacity="0.15"/>
    </g><g transform="translate(919.6895803508252,34.16872437500276) rotate(271.6229628507262) scale(0.3204901083097701)">
      <path d="M0,-4 C-2,-8 -8,-8 -8,-4 C-8,0 -2,4 0,8 C2,4 8,0 8,-4 C8,-8 2,-8 0,-4Z" fill="#B8A88C" opacity="0.15"/>
    </g>
    
  </g>
  <rect x="65" y="65" width="510" height="400" fill="none" stroke="#D4C4A8" stroke-width="4" rx="10"/>
<rect x="625" y="65" width="510" height="400" fill="none" stroke="#D4C4A8" stroke-width="4" rx="10"/>
<rect x="65" y="515" width="510" height="400" fill="none" stroke="#D4C4A8" stroke-width="4" rx="10"/>
<rect x="625" y="515" width="510" height="400" fill="none" stroke="#D4C4A8" stroke-width="4" rx="10"/>
<rect x="65" y="965" width="510" height="400" fill="none" stroke="#D4C4A8" stroke-width="4" rx="10"/>
<rect x="625" y="965" width="510" height="400" fill="none" stroke="#D4C4A8" stroke-width="4" rx="10"/>
  
      <text x="600" y="1720" text-anchor="middle" font-family="'Caveat', cursive, sans-serif" font-size="34" font-weight="bold" fill="#D4C4A8" letter-spacing="1">BaliSnap Studio</text>
      <line x1="540" y1="1738" x2="660" y2="1738" stroke="#B8A88C" stroke-width="1.5"/>
    
</svg>