<svg width="1200" height="1500" viewBox="0 0 1200 1500" xmlns="http://www.w3.org/2000/svg">
  <defs>
    <mask id="mask-polaroid-grid-4">
      <rect width="100%" height="100%" fill="white"/>
      <rect x="60" y="60" width="510" height="510" fill="black" rx="0"/>
<rect x="630" y="60" width="510" height="510" fill="black" rx="0"/>
<rect x="60" y="620" width="510" height="510" fill="black" rx="0"/>
<rect x="630" y="620" width="510" height="510" fill="black" rx="0"/>
    </mask>
  </defs>
  <g mask="url(#mask-polaroid-grid-4)">
    
      <!-- White card base -->
      <rect width="100%" height="100%" fill="#FFFFFF" rx="8"/>
      <!-- Subtle paper shadow -->
      <rect x="4" y="4" width="1192" height="1492" fill="none" stroke="#E8E0D8" stroke-width="2" rx="6"/>
      <!-- Slight aged paper effect -->
      <rect width="100%" height="100%" fill="#F8F4EE" opacity="0.3"/>
    
  </g>
  
      <!-- Decorative tape at top -->
      <rect x="570" y="-6.666666666666667" width="60" height="20" rx="2" fill="#C9A66B" opacity="0.7" transform="rotate(-5 600 10)"/>
    <rect x="60" y="60" width="510" height="510" fill="none" stroke="#DDD" stroke-width="1.5" rx="0"/>
       <rect x="62" y="62" width="506" height="506" fill="none" stroke="#EEE" stroke-width="1" rx="0"/>
<rect x="630" y="60" width="510" height="510" fill="none" stroke="#DDD" stroke-width="1.5" rx="0"/>
       <rect x="632" y="62" width="506" height="506" fill="none" stroke="#EEE" stroke-width="1" rx="0"/>
<rect x="60" y="620" width="510" height="510" fill="none" stroke="#DDD" stroke-width="1.5" rx="0"/>
       <rect x="62" y="622" width="506" height="506" fill="none" stroke="#EEE" stroke-width="1" rx="0"/>
<rect x="630" y="620" width="510" height="510" fill="none" stroke="#DDD" stroke-width="1.5" rx="0"/>
       <rect x="632" y="622" width="506" height="506" fill="none" stroke="#EEE" stroke-width="1" rx="0"/>
  
      <text x="600" y="1415" text-anchor="middle" font-family="'Playfair Display', serif" font-size="28" font-weight="bold" fill="#6B4A3A" letter-spacing="2">BaliSnap Studio</text>
      <text x="600" y="1443" text-anchor="middle" font-family="'Poppins', sans-serif" font-size="14" fill="#B8A898" letter-spacing="3">2026.07.16</text>
    
</svg>