<svg width="1200" height="1600" viewBox="0 0 1200 1600" xmlns="http://www.w3.org/2000/svg">
  <defs>
    <mask id="mask-polaroid-wall-8">
      <rect width="100%" height="100%" fill="white"/>
      <rect x="50" y="50" width="250" height="300" fill="black" rx="0"/>
<rect x="330" y="50" width="250" height="300" fill="black" rx="0"/>
<rect x="610" y="50" width="250" height="300" fill="black" rx="0"/>
<rect x="890" y="50" width="250" height="300" fill="black" rx="0"/>
<rect x="50" y="420" width="250" height="300" fill="black" rx="0"/>
<rect x="330" y="420" width="250" height="300" fill="black" rx="0"/>
<rect x="610" y="420" width="250" height="300" fill="black" rx="0"/>
<rect x="890" y="420" width="250" height="300" fill="black" rx="0"/>
    </mask>
  </defs>
  <g mask="url(#mask-polaroid-wall-8)">
    
      <!-- White card base -->
      <rect width="100%" height="100%" fill="#FFFFFF" rx="8"/>
      <!-- Subtle paper shadow -->
      <rect x="4" y="4" width="1192" height="1592" fill="none" stroke="#E8E0D8" stroke-width="2" rx="6"/>
      <!-- Slight aged paper effect -->
      <rect width="100%" height="100%" fill="#F8F4EE" opacity="0.3"/>
    
  </g>
  
      <!-- Decorative tape at top -->
      <rect x="570" y="-6.666666666666667" width="60" height="20" rx="2" fill="#D4C4A8" opacity="0.7" transform="rotate(-5 600 10)"/>
    <rect x="50" y="50" width="250" height="300" fill="none" stroke="#DDD" stroke-width="1.5" rx="0"/>
       <rect x="52" y="52" width="246" height="296" fill="none" stroke="#EEE" stroke-width="1" rx="0"/>
<rect x="330" y="50" width="250" height="300" fill="none" stroke="#DDD" stroke-width="1.5" rx="0"/>
       <rect x="332" y="52" width="246" height="296" fill="none" stroke="#EEE" stroke-width="1" rx="0"/>
<rect x="610" y="50" width="250" height="300" fill="none" stroke="#DDD" stroke-width="1.5" rx="0"/>
       <rect x="612" y="52" width="246" height="296" fill="none" stroke="#EEE" stroke-width="1" rx="0"/>
<rect x="890" y="50" width="250" height="300" fill="none" stroke="#DDD" stroke-width="1.5" rx="0"/>
       <rect x="892" y="52" width="246" height="296" fill="none" stroke="#EEE" stroke-width="1" rx="0"/>
<rect x="50" y="420" width="250" height="300" fill="none" stroke="#DDD" stroke-width="1.5" rx="0"/>
       <rect x="52" y="422" width="246" height="296" fill="none" stroke="#EEE" stroke-width="1" rx="0"/>
<rect x="330" y="420" width="250" height="300" fill="none" stroke="#DDD" stroke-width="1.5" rx="0"/>
       <rect x="332" y="422" width="246" height="296" fill="none" stroke="#EEE" stroke-width="1" rx="0"/>
<rect x="610" y="420" width="250" height="300" fill="none" stroke="#DDD" stroke-width="1.5" rx="0"/>
       <rect x="612" y="422" width="246" height="296" fill="none" stroke="#EEE" stroke-width="1" rx="0"/>
<rect x="890" y="420" width="250" height="300" fill="none" stroke="#DDD" stroke-width="1.5" rx="0"/>
       <rect x="892" y="422" width="246" height="296" fill="none" stroke="#EEE" stroke-width="1" rx="0"/>
  
      <text x="600" y="1515" text-anchor="middle" font-family="'Playfair Display', serif" font-size="28" font-weight="bold" fill="#6B4A3A" letter-spacing="2">BaliSnap Studio</text>
      <text x="600" y="1543" text-anchor="middle" font-family="'Poppins', sans-serif" font-size="14" fill="#B8A898" letter-spacing="3">2026.07.16</text>
    
</svg>