<svg width="1200" height="1500" viewBox="0 0 1200 1500" xmlns="http://www.w3.org/2000/svg">
  <defs>
    <mask id="mask-retro-vintage-1">
      <rect width="100%" height="100%" fill="white"/>
      <rect x="100" y="90" width="1000" height="1050" fill="black" rx="6"/>
    </mask>
  </defs>
  <g mask="url(#mask-retro-vintage-1)">
    
      <rect width="100%" height="100%" fill="#F5EDE0"/>
      <line x1="0" y1="0" x2="0" y2="1500" stroke="#8B7355" stroke-width="0.3" opacity="0.15"/><line x1="30" y1="0" x2="30" y2="1500" stroke="#8B7355" stroke-width="0.3" opacity="0.15"/><line x1="60" y1="0" x2="60" y2="1500" stroke="#8B7355" stroke-width="0.3" opacity="0.15"/><line x1="90" y1="0" x2="90" y2="1500" stroke="#8B7355" stroke-width="0.3" opacity="0.15"/><line x1="120" y1="0" x2="120" y2="1500" stroke="#8B7355" stroke-width="0.3" opacity="0.15"/><line x1="150" y1="0" x2="150" y2="1500" stroke="#8B7355" stroke-width="0.3" opacity="0.15"/><line x1="180" y1="0" x2="180" y2="1500" stroke="#8B7355" stroke-width="0.3" opacity="0.15"/><line x1="210" y1="0" x2="210" y2="1500" stroke="#8B7355" stroke-width="0.3" opacity="0.15"/><line x1="240" y1="0" x2="240" y2="1500" stroke="#8B7355" stroke-width="0.3" opacity="0.15"/><line x1="270" y1="0" x2="270" y2="1500" stroke="#8B7355" stroke-width="0.3" opacity="0.15"/><line x1="300" y1="0" x2="300" y2="1500" stroke="#8B7355" stroke-width="0.3" opacity="0.15"/><line x1="330" y1="0" x2="330" y2="1500" stroke="#8B7355" stroke-width="0.3" opacity="0.15"/><line x1="360" y1="0" x2="360" y2="1500" stroke="#8B7355" stroke-width="0.3" opacity="0.15"/><line x1="390" y1="0" x2="390" y2="1500" stroke="#8B7355" stroke-width="0.3" opacity="0.15"/><line x1="420" y1="0" x2="420" y2="1500" stroke="#8B7355" stroke-width="0.3" opacity="0.15"/><line x1="450" y1="0" x2="450" y2="1500" stroke="#8B7355" stroke-width="0.3" opacity="0.15"/><line x1="480" y1="0" x2="480" y2="1500" stroke="#8B7355" stroke-width="0.3" opacity="0.15"/><line x1="510" y1="0" x2="510" y2="1500" stroke="#8B7355" stroke-width="0.3" opacity="0.15"/><line x1="540" y1="0" x2="540" y2="1500" stroke="#8B7355" stroke-width="0.3" opacity="0.15"/><line x1="570" y1="0" x2="570" y2="1500" stroke="#8B7355" stroke-width="0.3" opacity="0.15"/><line x1="600" y1="0" x2="600" y2="1500" stroke="#8B7355" stroke-width="0.3" opacity="0.15"/><line x1="630" y1="0" x2="630" y2="1500" stroke="#8B7355" stroke-width="0.3" opacity="0.15"/><line x1="660" y1="0" x2="660" y2="1500" stroke="#8B7355" stroke-width="0.3" opacity="0.15"/><line x1="690" y1="0" x2="690" y2="1500" stroke="#8B7355" stroke-width="0.3" opacity="0.15"/><line x1="720" y1="0" x2="720" y2="1500" stroke="#8B7355" stroke-width="0.3" opacity="0.15"/><line x1="750" y1="0" x2="750" y2="1500" stroke="#8B7355" stroke-width="0.3" opacity="0.15"/><line x1="780" y1="0" x2="780" y2="1500" stroke="#8B7355" stroke-width="0.3" opacity="0.15"/><line x1="810" y1="0" x2="810" y2="1500" stroke="#8B7355" stroke-width="0.3" opacity="0.15"/><line x1="840" y1="0" x2="840" y2="1500" stroke="#8B7355" stroke-width="0.3" opacity="0.15"/><line x1="870" y1="0" x2="870" y2="1500" stroke="#8B7355" stroke-width="0.3" opacity="0.15"/><line x1="900" y1="0" x2="900" y2="1500" stroke="#8B7355" stroke-width="0.3" opacity="0.15"/><line x1="930" y1="0" x2="930" y2="1500" stroke="#8B7355" stroke-width="0.3" opacity="0.15"/><line x1="960" y1="0" x2="960" y2="1500" stroke="#8B7355" stroke-width="0.3" opacity="0.15"/><line x1="990" y1="0" x2="990" y2="1500" stroke="#8B7355" stroke-width="0.3" opacity="0.15"/><line x1="1020" y1="0" x2="1020" y2="1500" stroke="#8B7355" stroke-width="0.3" opacity="0.15"/><line x1="1050" y1="0" x2="1050" y2="1500" stroke="#8B7355" stroke-width="0.3" opacity="0.15"/><line x1="1080" y1="0" x2="1080" y2="1500" stroke="#8B7355" stroke-width="0.3" opacity="0.15"/><line x1="1110" y1="0" x2="1110" y2="1500" stroke="#8B7355" stroke-width="0.3" opacity="0.15"/><line x1="1140" y1="0" x2="1140" y2="1500" stroke="#8B7355" stroke-width="0.3" opacity="0.15"/><line x1="1170" y1="0" x2="1170" y2="1500" stroke="#8B7355" stroke-width="0.3" opacity="0.15"/><line x1="0" y1="0" x2="1200" y2="0" stroke="#8B7355" stroke-width="0.3" opacity="0.15"/><line x1="0" y1="30" x2="1200" y2="30" stroke="#8B7355" stroke-width="0.3" opacity="0.15"/><line x1="0" y1="60" x2="1200" y2="60" stroke="#8B7355" stroke-width="0.3" opacity="0.15"/><line x1="0" y1="90" x2="1200" y2="90" stroke="#8B7355" stroke-width="0.3" opacity="0.15"/><line x1="0" y1="120" x2="1200" y2="120" stroke="#8B7355" stroke-width="0.3" opacity="0.15"/><line x1="0" y1="150" x2="1200" y2="150" stroke="#8B7355" stroke-width="0.3" opacity="0.15"/><line x1="0" y1="180" x2="1200" y2="180" stroke="#8B7355" stroke-width="0.3" opacity="0.15"/><line x1="0" y1="210" x2="1200" y2="210" stroke="#8B7355" stroke-width="0.3" opacity="0.15"/><line x1="0" y1="240" x2="1200" y2="240" stroke="#8B7355" stroke-width="0.3" opacity="0.15"/><line x1="0" y1="270" x2="1200" y2="270" stroke="#8B7355" stroke-width="0.3" opacity="0.15"/><line x1="0" y1="300" x2="1200" y2="300" stroke="#8B7355" stroke-width="0.3" opacity="0.15"/><line x1="0" y1="330" x2="1200" y2="330" stroke="#8B7355" stroke-width="0.3" opacity="0.15"/><line x1="0" y1="360" x2="1200" y2="360" stroke="#8B7355" stroke-width="0.3" opacity="0.15"/><line x1="0" y1="390" x2="1200" y2="390" stroke="#8B7355" stroke-width="0.3" opacity="0.15"/><line x1="0" y1="420" x2="1200" y2="420" stroke="#8B7355" stroke-width="0.3" opacity="0.15"/><line x1="0" y1="450" x2="1200" y2="450" stroke="#8B7355" stroke-width="0.3" opacity="0.15"/><line x1="0" y1="480" x2="1200" y2="480" stroke="#8B7355" stroke-width="0.3" opacity="0.15"/><line x1="0" y1="510" x2="1200" y2="510" stroke="#8B7355" stroke-width="0.3" opacity="0.15"/><line x1="0" y1="540" x2="1200" y2="540" stroke="#8B7355" stroke-width="0.3" opacity="0.15"/><line x1="0" y1="570" x2="1200" y2="570" stroke="#8B7355" stroke-width="0.3" opacity="0.15"/><line x1="0" y1="600" x2="1200" y2="600" stroke="#8B7355" stroke-width="0.3" opacity="0.15"/><line x1="0" y1="630" x2="1200" y2="630" stroke="#8B7355" stroke-width="0.3" opacity="0.15"/><line x1="0" y1="660" x2="1200" y2="660" stroke="#8B7355" stroke-width="0.3" opacity="0.15"/><line x1="0" y1="690" x2="1200" y2="690" stroke="#8B7355" stroke-width="0.3" opacity="0.15"/><line x1="0" y1="720" x2="1200" y2="720" stroke="#8B7355" stroke-width="0.3" opacity="0.15"/><line x1="0" y1="750" x2="1200" y2="750" stroke="#8B7355" stroke-width="0.3" opacity="0.15"/><line x1="0" y1="780" x2="1200" y2="780" stroke="#8B7355" stroke-width="0.3" opacity="0.15"/><line x1="0" y1="810" x2="1200" y2="810" stroke="#8B7355" stroke-width="0.3" opacity="0.15"/><line x1="0" y1="840" x2="1200" y2="840" stroke="#8B7355" stroke-width="0.3" opacity="0.15"/><line x1="0" y1="870" x2="1200" y2="870" stroke="#8B7355" stroke-width="0.3" opacity="0.15"/><line x1="0" y1="900" x2="1200" y2="900" stroke="#8B7355" stroke-width="0.3" opacity="0.15"/><line x1="0" y1="930" x2="1200" y2="930" stroke="#8B7355" stroke-width="0.3" opacity="0.15"/><line x1="0" y1="960" x2="1200" y2="960" stroke="#8B7355" stroke-width="0.3" opacity="0.15"/><line x1="0" y1="990" x2="1200" y2="990" stroke="#8B7355" stroke-width="0.3" opacity="0.15"/><line x1="0" y1="1020" x2="1200" y2="1020" stroke="#8B7355" stroke-width="0.3" opacity="0.15"/><line x1="0" y1="1050" x2="1200" y2="1050" stroke="#8B7355" stroke-width="0.3" opacity="0.15"/><line x1="0" y1="1080" x2="1200" y2="1080" stroke="#8B7355" stroke-width="0.3" opacity="0.15"/><line x1="0" y1="1110" x2="1200" y2="1110" stroke="#8B7355" stroke-width="0.3" opacity="0.15"/><line x1="0" y1="1140" x2="1200" y2="1140" stroke="#8B7355" stroke-width="0.3" opacity="0.15"/><line x1="0" y1="1170" x2="1200" y2="1170" stroke="#8B7355" stroke-width="0.3" opacity="0.15"/><line x1="0" y1="1200" x2="1200" y2="1200" stroke="#8B7355" stroke-width="0.3" opacity="0.15"/><line x1="0" y1="1230" x2="1200" y2="1230" stroke="#8B7355" stroke-width="0.3" opacity="0.15"/><line x1="0" y1="1260" x2="1200" y2="1260" stroke="#8B7355" stroke-width="0.3" opacity="0.15"/><line x1="0" y1="1290" x2="1200" y2="1290" stroke="#8B7355" stroke-width="0.3" opacity="0.15"/><line x1="0" y1="1320" x2="1200" y2="1320" stroke="#8B7355" stroke-width="0.3" opacity="0.15"/><line x1="0" y1="1350" x2="1200" y2="1350" stroke="#8B7355" stroke-width="0.3" opacity="0.15"/><line x1="0" y1="1380" x2="1200" y2="1380" stroke="#8B7355" stroke-width="0.3" opacity="0.15"/><line x1="0" y1="1410" x2="1200" y2="1410" stroke="#8B7355" stroke-width="0.3" opacity="0.15"/><line x1="0" y1="1440" x2="1200" y2="1440" stroke="#8B7355" stroke-width="0.3" opacity="0.15"/><line x1="0" y1="1470" x2="1200" y2="1470" stroke="#8B7355" stroke-width="0.3" opacity="0.15"/>
      <!-- Double-line border (vintage ticket feel) -->
      <rect x="15" y="15" width="1170" height="1470" fill="none" stroke="#8B7355" stroke-width="3" rx="5"/>
      <rect x="22" y="22" width="1156" height="1456" fill="none" stroke="#8B7355" stroke-width="1" rx="3" stroke-dasharray="8,4"/>
    
  </g>
  
    <!-- Top-left corner -->
    <path d="M24,40 L24,24 L40,24" stroke="#C9A66B" stroke-width="3" fill="none"/>
    <path d="M12,56 L12,12 L56,12" stroke="#C9A66B" stroke-width="2" fill="none"/>
    <!-- Top-right corner -->
    <path d="M1160,24 L1176,24 L1176,40" stroke="#C9A66B" stroke-width="3" fill="none"/>
    <path d="M1144,12 L1188,12 L1188,56" stroke="#C9A66B" stroke-width="2" fill="none"/>
    <!-- Bottom-left corner -->
    <path d="M24,1460 L24,1476 L40,1476" stroke="#C9A66B" stroke-width="3" fill="none"/>
    <path d="M12,1444 L12,1488 L56,1488" stroke="#C9A66B" stroke-width="2" fill="none"/>
    <!-- Bottom-right corner -->
    <path d="M1160,1476 L1176,1476 L1176,1460" stroke="#C9A66B" stroke-width="3" fill="none"/>
    <path d="M1144,1488 L1188,1488 L1188,1444" stroke="#C9A66B" stroke-width="2" fill="none"/>
  <rect x="100" y="90" width="1000" height="1050" fill="none" stroke="#8B7355" stroke-width="3" rx="6"/>
      <line x1="520" y1="1385" x2="680" y2="1385" stroke="#C9A66B" stroke-width="1"/>
    
  
      <text x="600" y="1430" text-anchor="middle" font-family="'Playfair Display', serif" font-size="28" font-weight="bold" fill="#8B7355" letter-spacing="4">BALISNAP STUDIO</text>
      <text x="600" y="1460" text-anchor="middle" font-family="monospace" font-size="14" fill="#C9A66B" letter-spacing="2">EST. 2026 · BALI</text>
      <line x1="520" y1="1470" x2="680" y2="1470" stroke="#C9A66B" stroke-width="1"/>
    
</svg>