<svg width="1200" height="1000" viewBox="0 0 1200 1000" xmlns="http://www.w3.org/2000/svg">
  <defs>
    <mask id="mask-retro-ticket-2">
      <rect width="100%" height="100%" fill="white"/>
      <rect x="80" y="80" width="490" height="580" fill="black" rx="4"/>
<rect x="630" y="80" width="490" height="580" fill="black" rx="4"/>
    </mask>
  </defs>
  <g mask="url(#mask-retro-ticket-2)">
    
      <rect width="100%" height="100%" fill="#FFF8EE"/>
      <circle cx="81.33162882303039" cy="117.24531940859306" r="5.710451043872583" fill="#A0845C" opacity="0.08"/><circle cx="1092.1709484347803" cy="764.2759892756827" r="3.9327680044181346" fill="#A0845C" opacity="0.08"/><circle cx="487.65170060810794" cy="968.4480796274245" r="6.534372724624697" fill="#A0845C" opacity="0.08"/><circle cx="528.5746167680012" cy="127.99106177686811" r="3.7289105404437617" fill="#A0845C" opacity="0.08"/><circle cx="191.87679923314303" cy="394.477167534155" r="7.888797427889703" fill="#A0845C" opacity="0.08"/><circle cx="244.40913856440145" cy="153.66610852411586" r="6.331462941906846" fill="#A0845C" opacity="0.08"/><circle cx="455.442644521075" cy="853.7769106717566" r="5.1426940217080475" fill="#A0845C" opacity="0.08"/><circle cx="542.0268499683839" cy="537.7271399253301" r="5.900221713725684" fill="#A0845C" opacity="0.08"/><circle cx="966.326164981654" cy="203.2138958603273" r="5.079769800957077" fill="#A0845C" opacity="0.08"/><circle cx="1125.8562096635403" cy="554.4303292915508" r="4.552739449825826" fill="#A0845C" opacity="0.08"/><circle cx="454.0704481807262" cy="635.0236759847251" r="7.214625658201637" fill="#A0845C" opacity="0.08"/><circle cx="51.226449432993725" cy="469.12050896242306" r="5.541991430373854" fill="#A0845C" opacity="0.08"/><circle cx="779.9974871613063" cy="514.8083390805948" r="4.918793622794369" fill="#A0845C" opacity="0.08"/><circle cx="999.4661806146299" cy="356.74929931457086" r="7.427393071285815" fill="#A0845C" opacity="0.08"/><circle cx="286.8848592852101" cy="61.53096031540163" r="3.7542868268250364" fill="#A0845C" opacity="0.08"/><circle cx="551.6956021559384" cy="956.6587572513695" r="5.81866731384645" fill="#A0845C" opacity="0.08"/><circle cx="801.9746132213386" cy="322.772938127418" r="7.2238820383547635" fill="#A0845C" opacity="0.08"/><circle cx="188.50192817719832" cy="126.59565836805444" r="6.466185136666694" fill="#A0845C" opacity="0.08"/><circle cx="281.6649502903828" cy="952.3555980551574" r="4.202684427800294" fill="#A0845C" opacity="0.08"/><circle cx="844.1298619323687" cy="742.1602352914961" r="5.435382809429786" fill="#A0845C" opacity="0.08"/><circle cx="354.9355575395148" cy="168.26848328883617" r="3.4420257224161417" fill="#A0845C" opacity="0.08"/><circle cx="990.3245568185341" cy="320.6900747685601" r="7.190459758220669" fill="#A0845C" opacity="0.08"/><circle cx="973.719060023985" cy="746.8696616095208" r="6.192023260697744" fill="#A0845C" opacity="0.08"/><circle cx="800.3896070647888" cy="123.44088742829942" r="6.355009337752135" fill="#A0845C" opacity="0.08"/><circle cx="634.0685936008288" cy="659.0475651054155" r="6.06214697478539" fill="#A0845C" opacity="0.08"/><circle cx="121.01289175545134" cy="886.4001486323775" r="6.636494766582264" fill="#A0845C" opacity="0.08"/><circle cx="856.2126284988715" cy="971.3748926030238" r="7.489101015021188" fill="#A0845C" opacity="0.08"/><circle cx="796.9832301111736" cy="414.2930269374447" r="3.1145416056872732" fill="#A0845C" opacity="0.08"/><circle cx="24.193204589368033" cy="845.998946433886" r="6.521469597259043" fill="#A0845C" opacity="0.08"/><circle cx="81.48784849931286" cy="305.23206787671154" r="3.1768512047611654" fill="#A0845C" opacity="0.08"/><circle cx="561.1766801785461" cy="747.0573002910776" r="6.960239858329519" fill="#A0845C" opacity="0.08"/><circle cx="1140.3136995996476" cy="43.62469822505927" r="4.001552765724764" fill="#A0845C" opacity="0.08"/><circle cx="743.3675588512491" cy="482.13765535702714" r="4.437888191023737" fill="#A0845C" opacity="0.08"/><circle cx="380.84505906407264" cy="52.42841695661509" r="3.8220560274292303" fill="#A0845C" opacity="0.08"/><circle cx="310.96456787638795" cy="317.9160466584526" r="4.07500763244462" fill="#A0845C" opacity="0.08"/><circle cx="636.794211377198" cy="833.5958536095878" r="4.22756459166069" fill="#A0845C" opacity="0.08"/><circle cx="402.7491753946517" cy="837.8309144990807" r="5.120906274878333" fill="#A0845C" opacity="0.08"/><circle cx="257.22825867797087" cy="696.125815805165" r="6.932943077695503" fill="#A0845C" opacity="0.08"/><circle cx="233.83564263008128" cy="63.04437067643215" r="5.933726457817225" fill="#A0845C" opacity="0.08"/><circle cx="513.7422490061654" cy="388.32034765586286" r="5.500439195428452" fill="#A0845C" opacity="0.08"/><circle cx="1171.5785108241982" cy="933.3597039183227" r="7.882721383946688" fill="#A0845C" opacity="0.08"/><circle cx="935.592218242206" cy="748.6783883056403" r="3.188371096913117" fill="#A0845C" opacity="0.08"/><circle cx="228.73523387008834" cy="627.5693798694475" r="5.792851901885916" fill="#A0845C" opacity="0.08"/><circle cx="1070.86374486877" cy="339.13418309682436" r="7.141102402136757" fill="#A0845C" opacity="0.08"/><circle cx="1081.9390642288504" cy="458.2111816464096" r="3.7766708552620103" fill="#A0845C" opacity="0.08"/><circle cx="841.7033858985671" cy="757.3413343702829" r="6.179043301547918" fill="#A0845C" opacity="0.08"/><circle cx="43.38800762164222" cy="685.2109573643756" r="4.702814432049928" fill="#A0845C" opacity="0.08"/><circle cx="1008.5244642650005" cy="225.56033332418681" r="7.962641203275547" fill="#A0845C" opacity="0.08"/><circle cx="506.56889835984344" cy="919.566800742938" r="3.7961035783366333" fill="#A0845C" opacity="0.08"/><circle cx="27.089760664002746" cy="414.68054932978055" r="5.679985831659274" fill="#A0845C" opacity="0.08"/><circle cx="605.253804852491" cy="83.91900834061113" r="5.133901749862266" fill="#A0845C" opacity="0.08"/><circle cx="1076.8157678440361" cy="702.1759321933389" r="5.354473520400443" fill="#A0845C" opacity="0.08"/><circle cx="392.7547376535411" cy="857.40171732139" r="4.753320681632795" fill="#A0845C" opacity="0.08"/><circle cx="734.5731866867964" cy="309.6269060015929" r="7.497072859198854" fill="#A0845C" opacity="0.08"/><circle cx="552.851637595195" cy="147.89843899002153" r="6.645353870136061" fill="#A0845C" opacity="0.08"/><circle cx="591.0014346158146" cy="467.5969616208197" r="7.510690639271113" fill="#A0845C" opacity="0.08"/><circle cx="282.6187337586831" cy="310.8878846381678" r="3.463412532548804" fill="#A0845C" opacity="0.08"/><circle cx="857.8728125038305" cy="223.63535754721178" r="6.197301859685501" fill="#A0845C" opacity="0.08"/><circle cx="492.5687619415752" cy="835.9895738176905" r="5.38384218642846" fill="#A0845C" opacity="0.08"/><circle cx="56.55546622030015" cy="106.44142758701129" r="7.8054022410003485" fill="#A0845C" opacity="0.08"/>
      <!-- Double-line border (vintage ticket feel) -->
      <rect x="15" y="15" width="1170" height="970" fill="none" stroke="#A0845C" stroke-width="3" rx="5"/>
      <rect x="22" y="22" width="1156" height="956" fill="none" stroke="#A0845C" stroke-width="1" rx="3" stroke-dasharray="8,4"/>
    
  </g>
  
    <!-- Top-left corner -->
    <path d="M24,40 L24,24 L40,24" stroke="#D4B882" stroke-width="3" fill="none"/>
    <path d="M12,56 L12,12 L56,12" stroke="#D4B882" stroke-width="2" fill="none"/>
    <!-- Top-right corner -->
    <path d="M1160,24 L1176,24 L1176,40" stroke="#D4B882" stroke-width="3" fill="none"/>
    <path d="M1144,12 L1188,12 L1188,56" stroke="#D4B882" stroke-width="2" fill="none"/>
    <!-- Bottom-left corner -->
    <path d="M24,960 L24,976 L40,976" stroke="#D4B882" stroke-width="3" fill="none"/>
    <path d="M12,944 L12,988 L56,988" stroke="#D4B882" stroke-width="2" fill="none"/>
    <!-- Bottom-right corner -->
    <path d="M1160,976 L1176,976 L1176,960" stroke="#D4B882" stroke-width="3" fill="none"/>
    <path d="M1144,988 L1188,988 L1188,944" stroke="#D4B882" stroke-width="2" fill="none"/>
  <rect x="80" y="80" width="490" height="580" fill="none" stroke="#A0845C" stroke-width="3" rx="4"/>
<rect x="630" y="80" width="490" height="580" fill="none" stroke="#A0845C" stroke-width="3" rx="4"/>
      <line x1="520" y1="885" x2="680" y2="885" stroke="#D4B882" stroke-width="1"/>
    
  
      <text x="600" y="930" text-anchor="middle" font-family="'Playfair Display', serif" font-size="28" font-weight="bold" fill="#A0845C" letter-spacing="4">BALISNAP STUDIO</text>
      <text x="600" y="960" text-anchor="middle" font-family="monospace" font-size="14" fill="#D4B882" letter-spacing="2">EST. 2026 · BALI</text>
      <line x1="520" y1="970" x2="680" y2="970" stroke="#D4B882" stroke-width="1"/>
    
</svg>