<svg width="800" height="3000" viewBox="0 0 800 3000" xmlns="http://www.w3.org/2000/svg">
  <defs>
    <mask id="mask-retro-rose-4">
      <rect width="100%" height="100%" fill="white"/>
      <rect x="80" y="320" width="640" height="500" fill="black" rx="0"/>
<rect x="80" y="880" width="640" height="500" fill="black" rx="0"/>
<rect x="80" y="1440" width="640" height="500" fill="black" rx="0"/>
<rect x="80" y="2000" width="640" height="500" fill="black" rx="0"/>
    </mask>
  </defs>
  <g mask="url(#mask-retro-rose-4)">
    
      <rect width="100%" height="100%" fill="#FAF0DD"/>
      <circle cx="0" cy="280" r="30" fill="#4A3B32"/>
      <circle cx="800" cy="280" r="30" fill="#4A3B32"/>
      <circle cx="0" cy="2700" r="30" fill="#4A3B32"/>
      <circle cx="800" cy="2700" r="30" fill="#4A3B32"/>
    
  </g>
  
      <rect x="15" y="15" width="770" height="2970" fill="none" stroke="#4A3B32" stroke-width="6" rx="10"/>

      <!-- Film strip holes -->
      
          <rect x="30" y="40" width="15" height="25" rx="3" fill="#4A3B32"/>
          <rect x="755" y="40" width="15" height="25" rx="3" fill="#4A3B32"/>
        

          <rect x="30" y="120" width="15" height="25" rx="3" fill="#4A3B32"/>
          <rect x="755" y="120" width="15" height="25" rx="3" fill="#4A3B32"/>
        

          <rect x="30" y="200" width="15" height="25" rx="3" fill="#4A3B32"/>
          <rect x="755" y="200" width="15" height="25" rx="3" fill="#4A3B32"/>
        


          <rect x="30" y="360" width="15" height="25" rx="3" fill="#4A3B32"/>
          <rect x="755" y="360" width="15" height="25" rx="3" fill="#4A3B32"/>
        

          <rect x="30" y="440" width="15" height="25" rx="3" fill="#4A3B32"/>
          <rect x="755" y="440" width="15" height="25" rx="3" fill="#4A3B32"/>
        

          <rect x="30" y="520" width="15" height="25" rx="3" fill="#4A3B32"/>
          <rect x="755" y="520" width="15" height="25" rx="3" fill="#4A3B32"/>
        

          <rect x="30" y="600" width="15" height="25" rx="3" fill="#4A3B32"/>
          <rect x="755" y="600" width="15" height="25" rx="3" fill="#4A3B32"/>
        

          <rect x="30" y="680" width="15" height="25" rx="3" fill="#4A3B32"/>
          <rect x="755" y="680" width="15" height="25" rx="3" fill="#4A3B32"/>
        

          <rect x="30" y="760" width="15" height="25" rx="3" fill="#4A3B32"/>
          <rect x="755" y="760" width="15" height="25" rx="3" fill="#4A3B32"/>
        

          <rect x="30" y="840" width="15" height="25" rx="3" fill="#4A3B32"/>
          <rect x="755" y="840" width="15" height="25" rx="3" fill="#4A3B32"/>
        

          <rect x="30" y="920" width="15" height="25" rx="3" fill="#4A3B32"/>
          <rect x="755" y="920" width="15" height="25" rx="3" fill="#4A3B32"/>
        

          <rect x="30" y="1000" width="15" height="25" rx="3" fill="#4A3B32"/>
          <rect x="755" y="1000" width="15" height="25" rx="3" fill="#4A3B32"/>
        

          <rect x="30" y="1080" width="15" height="25" rx="3" fill="#4A3B32"/>
          <rect x="755" y="1080" width="15" height="25" rx="3" fill="#4A3B32"/>
        

          <rect x="30" y="1160" width="15" height="25" rx="3" fill="#4A3B32"/>
          <rect x="755" y="1160" width="15" height="25" rx="3" fill="#4A3B32"/>
        

          <rect x="30" y="1240" width="15" height="25" rx="3" fill="#4A3B32"/>
          <rect x="755" y="1240" width="15" height="25" rx="3" fill="#4A3B32"/>
        

          <rect x="30" y="1320" width="15" height="25" rx="3" fill="#4A3B32"/>
          <rect x="755" y="1320" width="15" height="25" rx="3" fill="#4A3B32"/>
        

          <rect x="30" y="1400" width="15" height="25" rx="3" fill="#4A3B32"/>
          <rect x="755" y="1400" width="15" height="25" rx="3" fill="#4A3B32"/>
        

          <rect x="30" y="1480" width="15" height="25" rx="3" fill="#4A3B32"/>
          <rect x="755" y="1480" width="15" height="25" rx="3" fill="#4A3B32"/>
        

          <rect x="30" y="1560" width="15" height="25" rx="3" fill="#4A3B32"/>
          <rect x="755" y="1560" width="15" height="25" rx="3" fill="#4A3B32"/>
        

          <rect x="30" y="1640" width="15" height="25" rx="3" fill="#4A3B32"/>
          <rect x="755" y="1640" width="15" height="25" rx="3" fill="#4A3B32"/>
        

          <rect x="30" y="1720" width="15" height="25" rx="3" fill="#4A3B32"/>
          <rect x="755" y="1720" width="15" height="25" rx="3" fill="#4A3B32"/>
        

          <rect x="30" y="1800" width="15" height="25" rx="3" fill="#4A3B32"/>
          <rect x="755" y="1800" width="15" height="25" rx="3" fill="#4A3B32"/>
        

          <rect x="30" y="1880" width="15" height="25" rx="3" fill="#4A3B32"/>
          <rect x="755" y="1880" width="15" height="25" rx="3" fill="#4A3B32"/>
        

          <rect x="30" y="1960" width="15" height="25" rx="3" fill="#4A3B32"/>
          <rect x="755" y="1960" width="15" height="25" rx="3" fill="#4A3B32"/>
        

          <rect x="30" y="2040" width="15" height="25" rx="3" fill="#4A3B32"/>
          <rect x="755" y="2040" width="15" height="25" rx="3" fill="#4A3B32"/>
        

          <rect x="30" y="2120" width="15" height="25" rx="3" fill="#4A3B32"/>
          <rect x="755" y="2120" width="15" height="25" rx="3" fill="#4A3B32"/>
        

          <rect x="30" y="2200" width="15" height="25" rx="3" fill="#4A3B32"/>
          <rect x="755" y="2200" width="15" height="25" rx="3" fill="#4A3B32"/>
        

          <rect x="30" y="2280" width="15" height="25" rx="3" fill="#4A3B32"/>
          <rect x="755" y="2280" width="15" height="25" rx="3" fill="#4A3B32"/>
        

          <rect x="30" y="2360" width="15" height="25" rx="3" fill="#4A3B32"/>
          <rect x="755" y="2360" width="15" height="25" rx="3" fill="#4A3B32"/>
        

          <rect x="30" y="2440" width="15" height="25" rx="3" fill="#4A3B32"/>
          <rect x="755" y="2440" width="15" height="25" rx="3" fill="#4A3B32"/>
        

          <rect x="30" y="2520" width="15" height="25" rx="3" fill="#4A3B32"/>
          <rect x="755" y="2520" width="15" height="25" rx="3" fill="#4A3B32"/>
        

          <rect x="30" y="2600" width="15" height="25" rx="3" fill="#4A3B32"/>
          <rect x="755" y="2600" width="15" height="25" rx="3" fill="#4A3B32"/>
        


          <rect x="30" y="2760" width="15" height="25" rx="3" fill="#4A3B32"/>
          <rect x="755" y="2760" width="15" height="25" rx="3" fill="#4A3B32"/>
        

          <rect x="30" y="2840" width="15" height="25" rx="3" fill="#4A3B32"/>
          <rect x="755" y="2840" width="15" height="25" rx="3" fill="#4A3B32"/>
        

          <rect x="30" y="2920" width="15" height="25" rx="3" fill="#4A3B32"/>
          <rect x="755" y="2920" width="15" height="25" rx="3" fill="#4A3B32"/>
        

      <line x1="30" y1="280" x2="770" y2="280" stroke="#4A3B32" stroke-width="3" stroke-dasharray="10,8"/>
      <line x1="30" y1="2700" x2="770" y2="2700" stroke="#4A3B32" stroke-width="3" stroke-dasharray="10,8"/>

      <!-- Barcode -->
      <g transform="translate(250, 50)">
        <rect x="0" y="0" width="6" height="60" fill="#4A3B32"/>
<rect x="11" y="0" width="4" height="60" fill="#4A3B32"/>
<rect x="22" y="0" width="2" height="60" fill="#4A3B32"/>
<rect x="33" y="0" width="6" height="60" fill="#4A3B32"/>
<rect x="44" y="0" width="2" height="60" fill="#4A3B32"/>
<rect x="55" y="0" width="4" height="60" fill="#4A3B32"/>
<rect x="66" y="0" width="6" height="60" fill="#4A3B32"/>
<rect x="77" y="0" width="4" height="60" fill="#4A3B32"/>
<rect x="88" y="0" width="2" height="60" fill="#4A3B32"/>
<rect x="99" y="0" width="6" height="60" fill="#4A3B32"/>
<rect x="110" y="0" width="2" height="60" fill="#4A3B32"/>
<rect x="121" y="0" width="4" height="60" fill="#4A3B32"/>
<rect x="132" y="0" width="6" height="60" fill="#4A3B32"/>
<rect x="143" y="0" width="4" height="60" fill="#4A3B32"/>
<rect x="154" y="0" width="2" height="60" fill="#4A3B32"/>
<rect x="165" y="0" width="6" height="60" fill="#4A3B32"/>
<rect x="176" y="0" width="2" height="60" fill="#4A3B32"/>
<rect x="187" y="0" width="4" height="60" fill="#4A3B32"/>
<rect x="198" y="0" width="6" height="60" fill="#4A3B32"/>
<rect x="209" y="0" width="4" height="60" fill="#4A3B32"/>
<rect x="220" y="0" width="2" height="60" fill="#4A3B32"/>
<rect x="231" y="0" width="6" height="60" fill="#4A3B32"/>
<rect x="242" y="0" width="2" height="60" fill="#4A3B32"/>
<rect x="253" y="0" width="4" height="60" fill="#4A3B32"/>
<rect x="264" y="0" width="6" height="60" fill="#4A3B32"/>
<rect x="275" y="0" width="4" height="60" fill="#4A3B32"/>
<rect x="286" y="0" width="2" height="60" fill="#4A3B32"/>
<rect x="297" y="0" width="6" height="60" fill="#4A3B32"/>
        <text x="150" y="80" text-anchor="middle" font-family="monospace" font-size="12" fill="#4A3B32" letter-spacing="4">NO. 20260716</text>
      </g>

      <!-- Slot Borders -->
      
        <rect x="80" y="320" width="640" height="500" fill="none" stroke="#4A3B32" stroke-width="4"/>
        <rect x="86" y="326" width="628" height="488" fill="none" stroke="#4A3B32" stroke-width="1.5" stroke-dasharray="4,2"/>
      

        <rect x="80" y="880" width="640" height="500" fill="none" stroke="#4A3B32" stroke-width="4"/>
        <rect x="86" y="886" width="628" height="488" fill="none" stroke="#4A3B32" stroke-width="1.5" stroke-dasharray="4,2"/>
      

        <rect x="80" y="1440" width="640" height="500" fill="none" stroke="#4A3B32" stroke-width="4"/>
        <rect x="86" y="1446" width="628" height="488" fill="none" stroke="#4A3B32" stroke-width="1.5" stroke-dasharray="4,2"/>
      

        <rect x="80" y="2000" width="640" height="500" fill="none" stroke="#4A3B32" stroke-width="4"/>
        <rect x="86" y="2006" width="628" height="488" fill="none" stroke="#4A3B32" stroke-width="1.5" stroke-dasharray="4,2"/>
      

      <text x="400" y="230" text-anchor="middle" font-family="'Playfair Display', Georgia, serif" font-weight="bold" font-size="28" fill="#4A3B32" letter-spacing="6">NOW SHOWING</text>
      <text x="400" y="2780" text-anchor="middle" font-family="'Playfair Display', Georgia, serif" font-weight="bold" font-size="32" fill="#4A3B32" letter-spacing="4">ADMIT ONE</text>
      <text x="400" y="2830" text-anchor="middle" font-family="monospace" font-size="14" fill="#4A3B32" letter-spacing="2">BALISNAP CINEMA TICKET</text>
    
  
</svg>