<svg width="1200" height="1800" viewBox="0 0 1200 1800" xmlns="http://www.w3.org/2000/svg">
  <defs>
    <mask id="mask-retro-caramel-6">
      <rect width="100%" height="100%" fill="white"/>
      <rect x="70" y="70" width="420" height="420" fill="black" rx="0"/>
<rect x="670" y="70" width="420" height="420" fill="black" rx="0"/>
<rect x="70" y="590" width="420" height="420" fill="black" rx="0"/>
<rect x="670" y="590" width="420" height="420" fill="black" rx="0"/>
<rect x="70" y="1110" width="420" height="420" fill="black" rx="0"/>
<rect x="670" y="1110" width="420" height="420" fill="black" rx="0"/>
    </mask>
  </defs>
  <g mask="url(#mask-retro-caramel-6)">
    
      <rect width="100%" height="100%" fill="#EBF5FB"/>
      <line x1="0" y1="0" x2="0" y2="1800" stroke="#AED6F1" stroke-width="1" opacity="0.4"/><line x1="40" y1="0" x2="40" y2="1800" stroke="#AED6F1" stroke-width="1" opacity="0.4"/><line x1="80" y1="0" x2="80" y2="1800" stroke="#AED6F1" stroke-width="1" opacity="0.4"/><line x1="120" y1="0" x2="120" y2="1800" stroke="#AED6F1" stroke-width="1" opacity="0.4"/><line x1="160" y1="0" x2="160" y2="1800" stroke="#AED6F1" stroke-width="1" opacity="0.4"/><line x1="200" y1="0" x2="200" y2="1800" stroke="#AED6F1" stroke-width="1" opacity="0.4"/><line x1="240" y1="0" x2="240" y2="1800" stroke="#AED6F1" stroke-width="1" opacity="0.4"/><line x1="280" y1="0" x2="280" y2="1800" stroke="#AED6F1" stroke-width="1" opacity="0.4"/><line x1="320" y1="0" x2="320" y2="1800" stroke="#AED6F1" stroke-width="1" opacity="0.4"/><line x1="360" y1="0" x2="360" y2="1800" stroke="#AED6F1" stroke-width="1" opacity="0.4"/><line x1="400" y1="0" x2="400" y2="1800" stroke="#AED6F1" stroke-width="1" opacity="0.4"/><line x1="440" y1="0" x2="440" y2="1800" stroke="#AED6F1" stroke-width="1" opacity="0.4"/><line x1="480" y1="0" x2="480" y2="1800" stroke="#AED6F1" stroke-width="1" opacity="0.4"/><line x1="520" y1="0" x2="520" y2="1800" stroke="#AED6F1" stroke-width="1" opacity="0.4"/><line x1="560" y1="0" x2="560" y2="1800" stroke="#AED6F1" stroke-width="1" opacity="0.4"/><line x1="600" y1="0" x2="600" y2="1800" stroke="#AED6F1" stroke-width="1" opacity="0.4"/><line x1="640" y1="0" x2="640" y2="1800" stroke="#AED6F1" stroke-width="1" opacity="0.4"/><line x1="680" y1="0" x2="680" y2="1800" stroke="#AED6F1" stroke-width="1" opacity="0.4"/><line x1="720" y1="0" x2="720" y2="1800" stroke="#AED6F1" stroke-width="1" opacity="0.4"/><line x1="760" y1="0" x2="760" y2="1800" stroke="#AED6F1" stroke-width="1" opacity="0.4"/><line x1="800" y1="0" x2="800" y2="1800" stroke="#AED6F1" stroke-width="1" opacity="0.4"/><line x1="840" y1="0" x2="840" y2="1800" stroke="#AED6F1" stroke-width="1" opacity="0.4"/><line x1="880" y1="0" x2="880" y2="1800" stroke="#AED6F1" stroke-width="1" opacity="0.4"/><line x1="920" y1="0" x2="920" y2="1800" stroke="#AED6F1" stroke-width="1" opacity="0.4"/><line x1="960" y1="0" x2="960" y2="1800" stroke="#AED6F1" stroke-width="1" opacity="0.4"/><line x1="1000" y1="0" x2="1000" y2="1800" stroke="#AED6F1" stroke-width="1" opacity="0.4"/><line x1="1040" y1="0" x2="1040" y2="1800" stroke="#AED6F1" stroke-width="1" opacity="0.4"/><line x1="1080" y1="0" x2="1080" y2="1800" stroke="#AED6F1" stroke-width="1" opacity="0.4"/><line x1="1120" y1="0" x2="1120" y2="1800" stroke="#AED6F1" stroke-width="1" opacity="0.4"/><line x1="1160" y1="0" x2="1160" y2="1800" stroke="#AED6F1" stroke-width="1" opacity="0.4"/><line x1="0" y1="0" x2="1200" y2="0" stroke="#AED6F1" stroke-width="1" opacity="0.4"/><line x1="0" y1="40" x2="1200" y2="40" stroke="#AED6F1" stroke-width="1" opacity="0.4"/><line x1="0" y1="80" x2="1200" y2="80" stroke="#AED6F1" stroke-width="1" opacity="0.4"/><line x1="0" y1="120" x2="1200" y2="120" stroke="#AED6F1" stroke-width="1" opacity="0.4"/><line x1="0" y1="160" x2="1200" y2="160" stroke="#AED6F1" stroke-width="1" opacity="0.4"/><line x1="0" y1="200" x2="1200" y2="200" stroke="#AED6F1" stroke-width="1" opacity="0.4"/><line x1="0" y1="240" x2="1200" y2="240" stroke="#AED6F1" stroke-width="1" opacity="0.4"/><line x1="0" y1="280" x2="1200" y2="280" stroke="#AED6F1" stroke-width="1" opacity="0.4"/><line x1="0" y1="320" x2="1200" y2="320" stroke="#AED6F1" stroke-width="1" opacity="0.4"/><line x1="0" y1="360" x2="1200" y2="360" stroke="#AED6F1" stroke-width="1" opacity="0.4"/><line x1="0" y1="400" x2="1200" y2="400" stroke="#AED6F1" stroke-width="1" opacity="0.4"/><line x1="0" y1="440" x2="1200" y2="440" stroke="#AED6F1" stroke-width="1" opacity="0.4"/><line x1="0" y1="480" x2="1200" y2="480" stroke="#AED6F1" stroke-width="1" opacity="0.4"/><line x1="0" y1="520" x2="1200" y2="520" stroke="#AED6F1" stroke-width="1" opacity="0.4"/><line x1="0" y1="560" x2="1200" y2="560" stroke="#AED6F1" stroke-width="1" opacity="0.4"/><line x1="0" y1="600" x2="1200" y2="600" stroke="#AED6F1" stroke-width="1" opacity="0.4"/><line x1="0" y1="640" x2="1200" y2="640" stroke="#AED6F1" stroke-width="1" opacity="0.4"/><line x1="0" y1="680" x2="1200" y2="680" stroke="#AED6F1" stroke-width="1" opacity="0.4"/><line x1="0" y1="720" x2="1200" y2="720" stroke="#AED6F1" stroke-width="1" opacity="0.4"/><line x1="0" y1="760" x2="1200" y2="760" stroke="#AED6F1" stroke-width="1" opacity="0.4"/><line x1="0" y1="800" x2="1200" y2="800" stroke="#AED6F1" stroke-width="1" opacity="0.4"/><line x1="0" y1="840" x2="1200" y2="840" stroke="#AED6F1" stroke-width="1" opacity="0.4"/><line x1="0" y1="880" x2="1200" y2="880" stroke="#AED6F1" stroke-width="1" opacity="0.4"/><line x1="0" y1="920" x2="1200" y2="920" stroke="#AED6F1" stroke-width="1" opacity="0.4"/><line x1="0" y1="960" x2="1200" y2="960" stroke="#AED6F1" stroke-width="1" opacity="0.4"/><line x1="0" y1="1000" x2="1200" y2="1000" stroke="#AED6F1" stroke-width="1" opacity="0.4"/><line x1="0" y1="1040" x2="1200" y2="1040" stroke="#AED6F1" stroke-width="1" opacity="0.4"/><line x1="0" y1="1080" x2="1200" y2="1080" stroke="#AED6F1" stroke-width="1" opacity="0.4"/><line x1="0" y1="1120" x2="1200" y2="1120" stroke="#AED6F1" stroke-width="1" opacity="0.4"/><line x1="0" y1="1160" x2="1200" y2="1160" stroke="#AED6F1" stroke-width="1" opacity="0.4"/><line x1="0" y1="1200" x2="1200" y2="1200" stroke="#AED6F1" stroke-width="1" opacity="0.4"/><line x1="0" y1="1240" x2="1200" y2="1240" stroke="#AED6F1" stroke-width="1" opacity="0.4"/><line x1="0" y1="1280" x2="1200" y2="1280" stroke="#AED6F1" stroke-width="1" opacity="0.4"/><line x1="0" y1="1320" x2="1200" y2="1320" stroke="#AED6F1" stroke-width="1" opacity="0.4"/><line x1="0" y1="1360" x2="1200" y2="1360" stroke="#AED6F1" stroke-width="1" opacity="0.4"/><line x1="0" y1="1400" x2="1200" y2="1400" stroke="#AED6F1" stroke-width="1" opacity="0.4"/><line x1="0" y1="1440" x2="1200" y2="1440" stroke="#AED6F1" stroke-width="1" opacity="0.4"/><line x1="0" y1="1480" x2="1200" y2="1480" stroke="#AED6F1" stroke-width="1" opacity="0.4"/><line x1="0" y1="1520" x2="1200" y2="1520" stroke="#AED6F1" stroke-width="1" opacity="0.4"/><line x1="0" y1="1560" x2="1200" y2="1560" stroke="#AED6F1" stroke-width="1" opacity="0.4"/><line x1="0" y1="1600" x2="1200" y2="1600" stroke="#AED6F1" stroke-width="1" opacity="0.4"/><line x1="0" y1="1640" x2="1200" y2="1640" stroke="#AED6F1" stroke-width="1" opacity="0.4"/><line x1="0" y1="1680" x2="1200" y2="1680" stroke="#AED6F1" stroke-width="1" opacity="0.4"/><line x1="0" y1="1720" x2="1200" y2="1720" stroke="#AED6F1" stroke-width="1" opacity="0.4"/><line x1="0" y1="1760" x2="1200" y2="1760" stroke="#AED6F1" stroke-width="1" opacity="0.4"/>
    
  </g>
  
      <!-- Retro TV bezel ornaments -->
      
          <rect x="50" y="50" width="520" height="460" rx="25" fill="#C0392B" stroke="#2C3E50" stroke-width="6"/>
          <rect x="65" y="65" width="430" height="430" rx="15" fill="none" stroke="#962D22" stroke-width="5"/>
          <rect x="500" y="70" width="60" height="420" rx="10" fill="#EAECEE" stroke="#2C3E50" stroke-width="3"/>
          <circle cx="530" cy="110" r="15" fill="#7F8C8D" stroke="#2C3E50" stroke-width="3"/>
          <line x1="530" y1="95" x2="530" y2="110" stroke="#2C3E50" stroke-width="3" stroke-linecap="round"/>
          <circle cx="530" cy="160" r="15" fill="#7F8C8D" stroke="#2C3E50" stroke-width="3"/>
          <line x1="515" y1="210" x2="545" y2="210" stroke="#7F8C8D" stroke-width="3" stroke-linecap="round"/>
          <line x1="515" y1="220" x2="545" y2="220" stroke="#7F8C8D" stroke-width="3" stroke-linecap="round"/>
          <line x1="515" y1="230" x2="545" y2="230" stroke="#7F8C8D" stroke-width="3" stroke-linecap="round"/>
          <line x1="515" y1="240" x2="545" y2="240" stroke="#7F8C8D" stroke-width="3" stroke-linecap="round"/>
          <rect x="85" y="85" width="65" height="30" rx="5" fill="black" opacity="0.6"/>
          <text x="117" y="105" text-anchor="middle" font-family="monospace" font-weight="bold" font-size="14" fill="#2ECC71">CH 01</text>
          <polygon points="455,90 470,100 455,110" fill="#F1C40F"/>
        

          <rect x="650" y="50" width="520" height="460" rx="25" fill="#C0392B" stroke="#2C3E50" stroke-width="6"/>
          <rect x="665" y="65" width="430" height="430" rx="15" fill="none" stroke="#962D22" stroke-width="5"/>
          <rect x="1100" y="70" width="60" height="420" rx="10" fill="#EAECEE" stroke="#2C3E50" stroke-width="3"/>
          <circle cx="1130" cy="110" r="15" fill="#7F8C8D" stroke="#2C3E50" stroke-width="3"/>
          <line x1="1130" y1="95" x2="1130" y2="110" stroke="#2C3E50" stroke-width="3" stroke-linecap="round"/>
          <circle cx="1130" cy="160" r="15" fill="#7F8C8D" stroke="#2C3E50" stroke-width="3"/>
          <line x1="1115" y1="210" x2="1145" y2="210" stroke="#7F8C8D" stroke-width="3" stroke-linecap="round"/>
          <line x1="1115" y1="220" x2="1145" y2="220" stroke="#7F8C8D" stroke-width="3" stroke-linecap="round"/>
          <line x1="1115" y1="230" x2="1145" y2="230" stroke="#7F8C8D" stroke-width="3" stroke-linecap="round"/>
          <line x1="1115" y1="240" x2="1145" y2="240" stroke="#7F8C8D" stroke-width="3" stroke-linecap="round"/>
          <rect x="685" y="85" width="65" height="30" rx="5" fill="black" opacity="0.6"/>
          <text x="717" y="105" text-anchor="middle" font-family="monospace" font-weight="bold" font-size="14" fill="#2ECC71">CH 02</text>
          <polygon points="1055,90 1070,100 1055,110" fill="#F1C40F"/>
        

          <rect x="50" y="570" width="520" height="460" rx="25" fill="#C0392B" stroke="#2C3E50" stroke-width="6"/>
          <rect x="65" y="585" width="430" height="430" rx="15" fill="none" stroke="#962D22" stroke-width="5"/>
          <rect x="500" y="590" width="60" height="420" rx="10" fill="#EAECEE" stroke="#2C3E50" stroke-width="3"/>
          <circle cx="530" cy="630" r="15" fill="#7F8C8D" stroke="#2C3E50" stroke-width="3"/>
          <line x1="530" y1="615" x2="530" y2="630" stroke="#2C3E50" stroke-width="3" stroke-linecap="round"/>
          <circle cx="530" cy="680" r="15" fill="#7F8C8D" stroke="#2C3E50" stroke-width="3"/>
          <line x1="515" y1="730" x2="545" y2="730" stroke="#7F8C8D" stroke-width="3" stroke-linecap="round"/>
          <line x1="515" y1="740" x2="545" y2="740" stroke="#7F8C8D" stroke-width="3" stroke-linecap="round"/>
          <line x1="515" y1="750" x2="545" y2="750" stroke="#7F8C8D" stroke-width="3" stroke-linecap="round"/>
          <line x1="515" y1="760" x2="545" y2="760" stroke="#7F8C8D" stroke-width="3" stroke-linecap="round"/>
          <rect x="85" y="605" width="65" height="30" rx="5" fill="black" opacity="0.6"/>
          <text x="117" y="625" text-anchor="middle" font-family="monospace" font-weight="bold" font-size="14" fill="#2ECC71">CH 03</text>
          <polygon points="455,610 470,620 455,630" fill="#F1C40F"/>
        

          <rect x="650" y="570" width="520" height="460" rx="25" fill="#C0392B" stroke="#2C3E50" stroke-width="6"/>
          <rect x="665" y="585" width="430" height="430" rx="15" fill="none" stroke="#962D22" stroke-width="5"/>
          <rect x="1100" y="590" width="60" height="420" rx="10" fill="#EAECEE" stroke="#2C3E50" stroke-width="3"/>
          <circle cx="1130" cy="630" r="15" fill="#7F8C8D" stroke="#2C3E50" stroke-width="3"/>
          <line x1="1130" y1="615" x2="1130" y2="630" stroke="#2C3E50" stroke-width="3" stroke-linecap="round"/>
          <circle cx="1130" cy="680" r="15" fill="#7F8C8D" stroke="#2C3E50" stroke-width="3"/>
          <line x1="1115" y1="730" x2="1145" y2="730" stroke="#7F8C8D" stroke-width="3" stroke-linecap="round"/>
          <line x1="1115" y1="740" x2="1145" y2="740" stroke="#7F8C8D" stroke-width="3" stroke-linecap="round"/>
          <line x1="1115" y1="750" x2="1145" y2="750" stroke="#7F8C8D" stroke-width="3" stroke-linecap="round"/>
          <line x1="1115" y1="760" x2="1145" y2="760" stroke="#7F8C8D" stroke-width="3" stroke-linecap="round"/>
          <rect x="685" y="605" width="65" height="30" rx="5" fill="black" opacity="0.6"/>
          <text x="717" y="625" text-anchor="middle" font-family="monospace" font-weight="bold" font-size="14" fill="#2ECC71">CH 04</text>
          <polygon points="1055,610 1070,620 1055,630" fill="#F1C40F"/>
        

          <rect x="50" y="1090" width="520" height="460" rx="25" fill="#C0392B" stroke="#2C3E50" stroke-width="6"/>
          <rect x="65" y="1105" width="430" height="430" rx="15" fill="none" stroke="#962D22" stroke-width="5"/>
          <rect x="500" y="1110" width="60" height="420" rx="10" fill="#EAECEE" stroke="#2C3E50" stroke-width="3"/>
          <circle cx="530" cy="1150" r="15" fill="#7F8C8D" stroke="#2C3E50" stroke-width="3"/>
          <line x1="530" y1="1135" x2="530" y2="1150" stroke="#2C3E50" stroke-width="3" stroke-linecap="round"/>
          <circle cx="530" cy="1200" r="15" fill="#7F8C8D" stroke="#2C3E50" stroke-width="3"/>
          <line x1="515" y1="1250" x2="545" y2="1250" stroke="#7F8C8D" stroke-width="3" stroke-linecap="round"/>
          <line x1="515" y1="1260" x2="545" y2="1260" stroke="#7F8C8D" stroke-width="3" stroke-linecap="round"/>
          <line x1="515" y1="1270" x2="545" y2="1270" stroke="#7F8C8D" stroke-width="3" stroke-linecap="round"/>
          <line x1="515" y1="1280" x2="545" y2="1280" stroke="#7F8C8D" stroke-width="3" stroke-linecap="round"/>
          <rect x="85" y="1125" width="65" height="30" rx="5" fill="black" opacity="0.6"/>
          <text x="117" y="1145" text-anchor="middle" font-family="monospace" font-weight="bold" font-size="14" fill="#2ECC71">CH 05</text>
          <polygon points="455,1130 470,1140 455,1150" fill="#F1C40F"/>
        

          <rect x="650" y="1090" width="520" height="460" rx="25" fill="#C0392B" stroke="#2C3E50" stroke-width="6"/>
          <rect x="665" y="1105" width="430" height="430" rx="15" fill="none" stroke="#962D22" stroke-width="5"/>
          <rect x="1100" y="1110" width="60" height="420" rx="10" fill="#EAECEE" stroke="#2C3E50" stroke-width="3"/>
          <circle cx="1130" cy="1150" r="15" fill="#7F8C8D" stroke="#2C3E50" stroke-width="3"/>
          <line x1="1130" y1="1135" x2="1130" y2="1150" stroke="#2C3E50" stroke-width="3" stroke-linecap="round"/>
          <circle cx="1130" cy="1200" r="15" fill="#7F8C8D" stroke="#2C3E50" stroke-width="3"/>
          <line x1="1115" y1="1250" x2="1145" y2="1250" stroke="#7F8C8D" stroke-width="3" stroke-linecap="round"/>
          <line x1="1115" y1="1260" x2="1145" y2="1260" stroke="#7F8C8D" stroke-width="3" stroke-linecap="round"/>
          <line x1="1115" y1="1270" x2="1145" y2="1270" stroke="#7F8C8D" stroke-width="3" stroke-linecap="round"/>
          <line x1="1115" y1="1280" x2="1145" y2="1280" stroke="#7F8C8D" stroke-width="3" stroke-linecap="round"/>
          <rect x="685" y="1125" width="65" height="30" rx="5" fill="black" opacity="0.6"/>
          <text x="717" y="1145" text-anchor="middle" font-family="monospace" font-weight="bold" font-size="14" fill="#2ECC71">CH 06</text>
          <polygon points="1055,1130 1070,1140 1055,1150" fill="#F1C40F"/>
        

      <!-- Retro rotary phone -->
      <g transform="translate(540, 1600) scale(1.1)">
        <path d="M 20,70 C 10,40 110,40 100,70 Z" fill="#D35400" stroke="#2C3E50" stroke-width="4"/>
        <rect x="30" y="70" width="60" height="15" rx="5" fill="#E67E22" stroke="#2C3E50" stroke-width="3"/>
        <circle cx="60" cy="58" r="18" fill="white" stroke="#2C3E50" stroke-width="3"/>
        <circle cx="60" cy="58" r="10" fill="#BDC3C7"/>
        <path d="M 10,25 Q 60,10 110,25 Q 115,35 105,40 Q 60,25 15,40 Q 5,35 10,25 Z" fill="#D35400" stroke="#2C3E50" stroke-width="3"/>
        <rect x="50" y="32" width="20" height="20" fill="#D35400" stroke="#2C3E50" stroke-width="3"/>
      </g>
    
  
</svg>