<svg width="200" height="200" viewBox="0 0 200 200" xmlns="http://www.w3.org/2000/svg">
    <polygon points="50,90 30,30 80,60" fill="#9CA3AF" />
    <polygon points="150,90 170,30 120,60" fill="#9CA3AF" />
    <polygon points="55,85 40,45 75,65" fill="#FCA5A5" />
    <polygon points="145,85 160,45 125,65" fill="#FCA5A5" />
    <circle cx="100" cy="115" r="60" fill="#9CA3AF" />
    <circle cx="75" cy="110" r="7" fill="#000" />
    <circle cx="125" cy="110" r="7" fill="#000" />
    <polygon points="100,123 93,117 107,117" fill="#FCA5A5" />
    <path d="M 90,130 Q 100,138 110,130" stroke="#000" stroke-width="2.5" fill="none" />
    <line x1="45" y1="125" x2="20" y2="120" stroke="#000" stroke-width="2" />
    <line x1="45" y1="133" x2="15" y2="135" stroke="#000" stroke-width="2" />
    <line x1="155" y1="125" x2="180" y2="120" stroke="#000" stroke-width="2" />
    <line x1="155" y1="133" x2="185" y2="135" stroke="#000" stroke-width="2" />
  </svg>