<svg viewBox="0 0 100 100" xmlns="http://www.w3.org/2000/svg">
  <ellipse cx="50" cy="58" rx="28" ry="32" fill="#2B2B2B"/>
  <ellipse cx="50" cy="62" rx="18" ry="24" fill="#FFFFFF"/>
  <path d="M22 55 q-10 6 -6 18 q10 -2 12 -12 Z" fill="#2B2B2B"/>
  <path d="M78 55 q10 6 6 18 q-10 -2 -12 -12 Z" fill="#2B2B2B"/>
  <path d="M42 48 q8 -6 16 0" stroke="#2B2B2B" stroke-width="2" fill="none" stroke-linecap="round"/>
  <circle cx="44" cy="50" r="3" fill="#2B2B2B"/>
  <circle cx="56" cy="50" r="3" fill="#2B2B2B"/>
  <path d="M47 55 L53 55 L50 60 Z" fill="#FFA53E"/>
  <ellipse cx="38" cy="58" rx="4" ry="3" fill="#FFB6C1" opacity="0.7"/>
  <ellipse cx="62" cy="58" rx="4" ry="3" fill="#FFB6C1" opacity="0.7"/>
  <path d="M40 88 L46 82 L54 82 L60 88 Z" fill="#FFA53E"/>
</svg>
